<?xml version="1.0" encoding="UTF-8"?>
<svg id="Layer_2" data-name="Layer 2" xmlns="http://www.w3.org/2000/svg" viewBox="0 0 94.87 108.12">
  <defs>
    <style>
      .cls-1 {
        fill: #000;
      }

      .cls-1, .cls-2, .cls-3 {
        stroke-width: 0px;
      }

      .cls-2 {
        fill: #ff005a;
      }

      .cls-3 {
        fill: #05f3db;
      }
    </style>
  </defs>
  <g id="Layer_6" data-name="Layer 6">
    <g>
      <polygon class="cls-2" points="94.87 34.01 94.87 83.42 52.09 108.12 9.3 83.42 9.3 79.48 42.79 98.82 85.57 74.11 85.57 28.64 94.87 34.01"/>
      <path class="cls-1" d="M52.09,9.3L9.3,34.01v45.47l33.49,19.34,42.78-24.71V28.64L52.09,9.3ZM66.97,67.31l-14.88,8.59-14.88-8.59v-3.93l-9.31-5.38v-17.19l14.89-8.59,14.88,8.59v3.94l9.3,5.37v17.19Z"/>
      <polygon class="cls-2" points="57.67 40.81 57.67 44.75 52.09 41.52 37.21 50.12 37.21 63.38 27.9 58 27.9 40.81 42.79 32.22 57.67 40.81"/>
      <polygon class="cls-3" points="66.97 50.12 66.97 67.31 52.09 75.9 37.21 67.31 37.21 63.38 42.79 66.6 57.67 58 57.67 44.75 66.97 50.12"/>
      <polygon class="cls-3" points="85.57 24.7 85.57 28.64 52.09 9.3 9.3 34.01 9.3 79.48 0 74.11 0 24.7 42.79 0 85.57 24.7"/>
    </g>
  </g>
</svg>