<?xml version="1.0" encoding="UTF-8"?>
<svg id="Layer_2" data-name="Layer 2" xmlns="http://www.w3.org/2000/svg" viewBox="0 0 145.21 89.45">
  <defs>
    <style>
      .cls-1 {
        fill: #f2055d;
      }

      .cls-1, .cls-2, .cls-3 {
        stroke-width: 0px;
      }

      .cls-2 {
        fill: #05f3db;
      }

      .cls-3 {
        fill: #f7f7f7;
      }
    </style>
  </defs>
  <g id="Layer_6" data-name="Layer 6">
    <g>
      <g>
        <path class="cls-2" d="M17.26,38.8c0-.05-.02-.11-.03-.16,0,.04.02.07.02.12,0,.02,0,.03,0,.04Z"/>
        <path class="cls-2" d="M17.25,38.76s-.01-.08-.02-.12c0,.05.02.1.03.16,0-.01,0-.02,0-.04Z"/>
        <path class="cls-2" d="M63.09,63.72c0,1.3-.3,2.53-.83,3.6-.84-.37-1.76-.91-2.65-1.71.35.54.71.95,1.01,1.3,1.1,1.27,2.34,2.04,3.43,2.51.53-1.07.83-2.3.83-3.6v-15.81c-.6.62-1.19,1.22-1.8,1.77v11.94ZM63.09,32.95v7.54c-4.52,5.89-9.3,9.1-12.82,10.46-.91,1.08-1.8,2.02-2.62,2.82,2.61.62,10.22-2.05,17.23-11.19v-11.53c-.1.11-.2.21-.31.32-.54.56-1.03,1.09-1.49,1.57ZM62.31,13.71c-.12.28-.25.56-.37.83.75,2.03,1.15,4.28,1.15,6.59v.92s-.05.04-.08.07c-1.07,1.03-2.15,2.12-3.2,3.21-1.17,1.22-2.11,2.25-2.95,3.16-1.36,1.49-2.91,3.16-3.28,3.1-.05-.01-.11-.03-.17-.06.15.29.33.58.56.87.31.39.95,1.2,1.4,1.29.37.06,1.92-1.61,3.28-3.1.83-.91,1.78-1.94,2.95-3.16,1.05-1.1,2.14-2.18,3.2-3.21.03-.03.05-.05.08-.07v-.92c0-3.5-.92-6.85-2.58-9.52ZM8.66,82.74c-2.1-4.12-3.67-9.25-4.64-15.25h0c-2.33-4.28-2.57-9.57-1.92-13.31,1.36-7.87,7.11-13.06,12.28-14.86-.23-3.83,0-10.77,3.97-15.85,3.51-4.5,8.19-5.6,10.19-6.06,2.38-.55,4.64-.55,6.34-.4.31-2.86,1.55-5.7,3.59-8.18,3.55-4.3,8.88-6.88,13.91-6.72,3.83.13,7.64,1.88,10.72,4.95.02.03.05.05.08.08.02.02.04.04.06.06-.41-.56-.84-1.09-1.31-1.59-.18-.19-.37-.39-.55-.57-.03-.03-.05-.05-.08-.08C58.23,1.89,54.42.13,50.59,0c-5.03-.16-10.35,2.42-13.91,6.72-2.05,2.48-3.28,5.33-3.59,8.18-1.69-.15-3.96-.15-6.34.4-2,.47-6.68,1.56-10.19,6.06-3.96,5.08-4.2,12.02-3.97,15.85-5.17,1.8-10.92,6.99-12.28,14.86-.65,3.74-.41,9.02,1.92,13.3h0c.96,6.01,2.53,11.13,4.64,15.25.48.94,1,1.86,1.52,2.71.52.86,1.14,1.59,1.84,2.18-.02-.03-.03-.05-.05-.08-.52-.86-1.03-1.77-1.52-2.71ZM55.08,72.39c.67.52,1.28,1.21,1.75,2.12,1.09-.49,2.16-1,3.23-1.54-.79-.55-1.53-1.19-2.2-1.91-.92.46-1.84.9-2.78,1.32ZM58.91,9.91c-.68-.52-1.38-.98-2.11-1.34-2.25,5.35-4.66,8.78-5.87,9.89l-.13.12c-.73.67-2.26,2.05-3.22,4.55-.59,1.52-.71,2.82-.75,3.74-1.2-.17-3.49-1.18-5.51-3.11,2.27,3.31,5.72,4.99,7.31,5.21.04-.91.16-2.22.75-3.74.96-2.5,2.49-3.88,3.22-4.55l.13-.12c1.27-1.16,3.84-4.86,6.18-10.64ZM54.15,57.82c-.1.04-.2.08-.29.12-.47,1.2-.99,2.35-1.56,3.45.13.85.33,1.72.64,2.61.82,2.34,2.08,3.78,2.75,4.55.23.26.46.51.71.76-.57-.8-1.19-1.85-1.66-3.21-1.13-3.23-.8-6.31-.6-8.15,0-.04,0-.08.01-.13ZM48.28,68.78c-.42,0-.84.03-1.26.06-.3.31-.6.62-.92.92-.39.38-.8.75-1.21,1.09.12.04.23.07.34.11.85.25,1.88.15,2.97.04.61-.06,1.24-.12,1.87-.12,1.38,0,3.31.26,4.9,1.43-1.61-3-4.72-3.53-6.7-3.53ZM52.69,38.01c-.84-.6-1.48-1.36-1.89-1.88-.79,1.69-1.75,3.55-2.56,4.9-2.34,3.93-5.23,6.71-7.01,8.21-.39-.29-.61-.49-.61-.49-.14-.13-.27-.25-.39-.38.09.13.19.25.28.36.44.56,1.04,1.32,1.91,2.12,0,0,.22.2.61.49,1.78-1.5,4.67-4.28,7.01-8.21.84-1.41,1.85-3.38,2.66-5.12ZM48.58,76.24c-1.03.1-2.17.21-3.35.05-2.41.82-4.85,1.53-7.3,2.15-4.31,1.1-15.85,2.82-22.51,3.64-.71.09-1.41-.06-2.03-.42.15.26.3.51.45.76.76,1.25,2.05,1.93,3.37,1.76,6.67-.82,18.2-2.55,22.51-3.64,4.2-1.06,8.36-2.41,12.47-4.05-.47-.23-1.14-.36-2.12-.36-.44,0-.96.05-1.5.1ZM49.54,34.19c-.13.01-.26.02-.39.02.28.35.65.77,1.09,1.17-.26-.38-.49-.78-.7-1.19ZM35.52,67.54c.74,0,1.47.06,2.19.2.07.01.13.03.2.05.67.14,1.31.35,1.92.62,1.22-.78,2.38-1.69,3.44-2.71,1.94-1.86,3.6-4.06,4.95-6.59-.68-.02-1.3-.12-1.86-.29-.28-.08-.55-.18-.82-.28-1.17,1.9-2.53,3.59-4.07,5.06-1.06,1.02-2.22,1.93-3.44,2.71-.61-.28-1.24-.49-1.92-.62-.07-.02-.13-.04-.2-.05-.72-.14-1.45-.2-2.19-.2-.79-.41-1.53-.94-2.22-1.6,1.22,1.73,2.51,2.91,4.01,3.7ZM35.05,49.18c-.59-.99-1.17-2.16-1.66-3.5l-.04-.09c-.34-.75-1.22-2.74-1.22-6.21s.39-7.83,1.14-9.58c.7-1.63.86-4.55.98-6.67.02-.3.04-.6.05-.91-.61-.04-1.25-.06-1.92-.04-.13,1.94-.34,4.17-.91,5.52-.75,1.74-1.14,6.14-1.14,9.58s.88,5.47,1.22,6.21l.04.09c.49,1.34,1.07,2.51,1.66,3.5-1.26,1.02-2.93,2.09-4.61,2.4-1.09.19-2.18.2-3.26.01.34.61.63,1.24.87,1.89,1.38.39,2.78.45,4.18.2,1.68-.3,3.35-1.38,4.61-2.4ZM12.13,66.88c-2.14-.58-3.34-1.23-4.1-1.83.31.52.67,1,1.07,1.44.68.73,1.84,1.67,4.82,2.49,5.7,1.55,10.58.49,14.88-.44.08-.02.16-.04.24-.05-1.73-2.09-3.27-4.88-4.77-8.54-.74-1.81-1.49-3.75-1.92-5.77-.47-2.13-2.78-4.86-4.47-6.86-.94-1.11-1.73-2.04-2.3-2.93-.05.02-.1.04-.15.06.21.25.43.5.65.77,1.69,2,4,4.72,4.47,6.86.43,2.03,1.18,3.97,1.92,5.77,1.5,3.66,3.05,6.44,4.77,8.54-.08.02-.16.04-.24.05-4.3.93-9.17,2-14.88.44Z"/>
        <path class="cls-1" d="M19.05,40.9c0-.05-.02-.1-.03-.16,0,.04.02.07.02.12,0,.02,0,.03,0,.04Z"/>
        <path class="cls-1" d="M19.05,40.86s-.01-.08-.02-.12c0,.05.02.1.03.16,0-.01,0-.02,0-.04Z"/>
        <path class="cls-1" d="M63.73,7.7c-.17-.17-.33-.35-.49-.51,2.78,3.77,4.34,8.75,4.34,13.95v42.58c0,4.93-2.49,9.4-6.35,11.38-7.21,3.69-14.73,6.54-22.35,8.47-4.67,1.19-16.48,2.92-22.99,3.73-.29.04-.57.05-.86.05-1.74,0-3.42-.65-4.8-1.82,1.53,2.48,4,3.92,6.6,3.92.29,0,.57-.02.86-.05,6.51-.8,18.32-2.54,22.99-3.73,7.62-1.93,15.14-4.78,22.35-8.47,3.85-1.97,6.35-6.44,6.35-11.38V23.24c0-5.97-2.06-11.63-5.65-15.54ZM59.32,55.2l.06-.25s.02-.1.03-.15c1.22-.87,2.45-1.88,3.68-3.03v-3.87c-1.82,1.91-3.67,3.51-5.47,4.8,0,.05-.02.1-.03.15l-.06.25c-.18.73-.65,2.66-.73,3.41-.17,1.58-.39,3.55.3,5.5.47,1.34,1.21,2.18,1.74,2.8.26.29.52.56.79.8-.27-.42-.53-.91-.73-1.5-.68-1.95-.47-3.92-.3-5.5.08-.75.56-2.68.73-3.41ZM55.77,36.24c-.92,2.3-2.53,5.57-3.85,7.8-1.93,3.24-4.18,5.81-6.06,7.64.92.22,2.48.03,4.42-.72,1.16-1.39,2.35-3,3.44-4.82,1.33-2.23,2.93-5.5,3.85-7.8,1.27-.74,2.52-2.12,4.15-3.9.43-.46.88-.96,1.37-1.5v-3.99c-.1.11-.2.21-.31.32-1.12,1.17-2.05,2.18-2.86,3.07-1.63,1.78-2.89,3.16-4.15,3.9ZM53.7,22.58l-.16.14c-.51.47-1.37,1.24-1.87,2.55-.34.88-.35,1.54-.37,2.24,0,.33-.01.67-.06,1.03.17.54.46,1.17.93,1.77.27.34.8,1.02,1.24,1.23-.16-.32-.29-.62-.38-.9.04-.36.05-.71.06-1.03.02-.7.04-1.36.37-2.24.5-1.31,1.36-2.08,1.87-2.55l.16-.14c1.71-1.56,4.16-5.13,6.44-10.14-.39-1.04-.86-2.02-1.42-2.93-2.38,5.43-5.01,9.32-6.81,10.97ZM57.48,70.66c.13.14.25.28.38.41.13-.06.27-.13.4-.19-.66-.46-1.29-.99-1.87-1.56.41.58.8,1.02,1.09,1.34ZM41.32,23.75c-.18-.26-.35-.54-.52-.82-.77-1.33-1.41-2.56-1.5-4.16-.11-2.05.75-4.28,2.41-6.29,2.59-3.14,6.57-5.12,10.24-5.12.1,0,.21,0,.31,0,1.54.05,3.08.47,4.54,1.21.11-.25.21-.5.31-.76-2.03-1.59-4.34-2.48-6.65-2.56-.1,0-.21,0-.31,0-3.66,0-7.65,1.98-10.24,5.12-1.66,2.01-2.51,4.24-2.41,6.29.09,1.6.73,2.83,1.5,4.16.66,1.14,1.46,2.11,2.32,2.92ZM55.08,72.39s-.07-.05-.1-.08c.02.03.04.07.05.11.02,0,.03-.02.05-.02ZM52.35,55.72c-.1.04-.2.08-.29.12-1.84,4.69-4.45,8.67-7.75,11.82-.39.38-.8.75-1.21,1.09.12.04.23.07.34.11.85.25,1.88.15,2.97.04.2-.02.41-.04.61-.06,2.06-2.15,3.82-4.65,5.27-7.45-.32-2.22-.11-4.21.04-5.54,0-.04,0-.08.01-.13ZM50.89,35.91c-.23-.17-.45-.34-.65-.52.13.2.27.39.42.58.04.05.08.1.13.16.03-.07.07-.14.1-.22ZM35.71,41.5c.86,2.39,2.15,4.03,3,5.12.37.47.86,1.09,1.52,1.74-.84-1.08-1.95-2.62-2.72-4.76-.04-.11-.1-.26-.18-.44-.23-.51-.71-1.59-.71-3.78,0-3.56.44-6.61.66-7.22.56-1.3.88-2.85,1.09-4.39,2.94,3.83,7.15,6.13,10.04,6.42.26.03.52.04.75.03-.1-.13-.19-.24-.27-.34-.43-.55-.81-1.14-1.13-1.78-.35.03-.73.04-1.14,0-2.89-.28-7.1-2.58-10.04-6.42-.2,1.54-.53,3.09-1.09,4.39-.22.61-.66,3.66-.66,7.22,0,2.19.48,3.27.71,3.78.08.18.14.33.18.44ZM12.05,80.32c.35.58.82,1.03,1.35,1.34-.3-.52-.59-1.07-.88-1.63-1.05-2.04-1.94-4.38-2.67-7.02.84.38,1.85.75,3.07,1.08,2.47.67,4.81.92,6.99.92,3.66,0,6.91-.7,9.72-1.32,2.87-.62,5.35-1.17,7.36-.78.77.15,1.45.43,2.07.87,1.18.82,3.76,1.88,5.1,2.27.36.1.73.18,1.08.23,1.73-.58,3.46-1.21,5.17-1.9-.47-.23-1.14-.36-2.12-.36-.44,0-.96.05-1.5.1-1.34.13-2.86.28-4.43-.18-1.34-.39-3.92-1.44-5.1-2.27-.62-.44-1.3-.72-2.07-.87-2-.39-4.48.15-7.36.78-2.82.61-6.07,1.32-9.72,1.32-2.19,0-4.52-.25-6.99-.92-1.22-.33-2.23-.7-3.07-1.08.74,2.64,1.63,4.99,2.67,7.02.43.83.87,1.63,1.33,2.38ZM31.12,56.77c2.65-.48,5.08-2.08,6.84-3.56.44.52,1,1.13,1.68,1.76.11.1,2.55,2.33,5.9,3.57.31-.49.61-1,.88-1.53-.68-.02-1.3-.12-1.86-.29-3.75-1.16-6.6-3.74-6.71-3.85-.69-.63-1.24-1.23-1.68-1.76-1.76,1.48-4.2,3.08-6.84,3.56-.77.14-1.54.21-2.32.21-.26,0-.52,0-.77-.03.09.24.19.48.29.71,1.62,3.95,3.17,6.57,4.99,8.27-1.1-1.56-2.13-3.58-3.2-6.17-.1-.24-.2-.48-.29-.71.26.02.52.03.77.03.78,0,1.56-.07,2.32-.21ZM17.23,38.65c0,.05.02.1.03.16,0-.01,0-.02,0-.04.02.08.04.16.04.24.32.55,1.27,1.67,1.99,2.52,1.85,2.19,4.09,4.83,5.18,7.76.31.09.61.16.92.21-1.18-2.18-2.86-4.16-4.31-5.87-.72-.85-1.67-1.97-1.99-2.52,0-.08-.02-.16-.04-.24,0,.02,0,.03,0,.04,0-.05-.02-.11-.03-.16,0,0,0-.01,0-.02-.16-1.28-1-9.04,2.65-13.71,2.53-3.24,6.06-4.06,7.75-4.46.98-.23,1.99-.34,2.96-.37.02-.4.04-.79.07-1.16.02-.3.04-.6.05-.91-1.49-.1-3.22-.05-4.87.34-1.7.39-5.23,1.22-7.75,4.46-3.65,4.67-2.81,12.43-2.65,13.71,0,0,0,.01,0,.02ZM6.5,55.22c1.03-5.93,5.58-9.51,8.94-10.78-.66-.78-1.22-1.49-1.65-2.16-3.37,1.22-8.05,4.82-9.09,10.84-.51,2.97-.2,6.86,1.46,9.71.32.56.7,1.09,1.14,1.55.19.2.42.43.72.66-.02-.04-.04-.08-.07-.12-1.66-2.86-1.97-6.74-1.46-9.71Z"/>
        <path class="cls-3" d="M63.24,7.19s-.04-.04-.06-.06c-.03-.03-.05-.05-.08-.08-3.08-3.07-6.89-4.82-10.72-4.95-5.03-.16-10.35,2.42-13.91,6.72-2.05,2.48-3.28,5.33-3.59,8.18-1.69-.15-3.96-.15-6.34.4-2,.47-6.68,1.56-10.19,6.06-3.96,5.08-4.2,12.02-3.97,15.85-5.17,1.8-10.92,6.99-12.28,14.86-.65,3.74-.41,9.02,1.92,13.3h0c.96,6.01,2.53,11.13,4.64,15.25.48.94,1,1.86,1.52,2.71.02.03.03.05.05.08,1.38,1.18,3.06,1.82,4.8,1.82.29,0,.57-.02.86-.05,6.51-.8,18.32-2.54,22.99-3.73,7.62-1.93,15.14-4.78,22.35-8.47,3.85-1.97,6.35-6.44,6.35-11.38V21.14c0-5.2-1.56-10.17-4.34-13.95ZM39.91,10.38c2.59-3.14,6.57-5.12,10.24-5.12.1,0,.21,0,.31,0,2.31.07,4.62.97,6.65,2.56-.1.26-.21.51-.31.76.73.37,1.43.82,2.11,1.34-2.34,5.78-4.91,9.48-6.18,10.64l-.13.12c-.73.67-2.26,2.05-3.22,4.55-.59,1.52-.71,2.82-.75,3.74-1.58-.22-5.04-1.9-7.31-5.21-.85-.81-1.66-1.78-2.32-2.92-.77-1.33-1.41-2.56-1.5-4.16-.11-2.05.75-4.28,2.41-6.29ZM35.48,30.06c.56-1.3.88-2.85,1.09-4.39,2.94,3.83,7.15,6.13,10.04,6.42.42.04.8.04,1.14,0,.32.64.7,1.23,1.13,1.78.08.1.17.22.27.34.14,0,.27-.01.39-.02.21.41.44.81.7,1.19h0c.2.19.41.36.65.53-.03.07-.07.14-.1.22.42.52,1.05,1.28,1.89,1.88-.8,1.74-1.82,3.71-2.66,5.12-2.34,3.93-5.23,6.71-7.01,8.21-.39-.29-.61-.49-.61-.49-.87-.8-1.47-1.56-1.91-2.12-.09-.11-.18-.23-.28-.36-.66-.66-1.15-1.28-1.52-1.74-.85-1.09-2.14-2.72-3-5.12-.04-.11-.1-.26-.18-.44-.23-.51-.71-1.59-.71-3.78,0-3.56.44-6.61.66-7.22ZM46.36,58.82c.57.18,1.18.28,1.86.29-1.35,2.52-3.01,4.73-4.95,6.59-1.06,1.02-2.22,1.93-3.44,2.71-.61-.28-1.24-.49-1.92-.62-.07-.02-.13-.04-.2-.05-.72-.14-1.45-.2-2.19-.2-1.5-.79-2.8-1.96-4.01-3.7-1.82-1.71-3.37-4.32-4.99-8.27-.1-.24-.2-.48-.29-.71.26.02.52.03.77.03.78,0,1.56-.07,2.32-.21,2.65-.48,5.08-2.08,6.84-3.56.44.52,1,1.13,1.68,1.76.12.11,2.96,2.69,6.71,3.85.57.18,1.18.28,1.86.29-.28.52-.57,1.03-.88,1.53.26.1.54.19.82.28ZM19.87,24.92c2.53-3.24,6.06-4.06,7.75-4.46,1.65-.38,3.38-.44,4.87-.34-.02.3-.04.61-.05.91-.02.37-.04.76-.07,1.16.66-.02,1.31,0,1.92.04-.02.3-.04.61-.05.91-.12,2.13-.28,5.05-.98,6.67-.75,1.74-1.14,6.14-1.14,9.58s.88,5.47,1.22,6.21l.04.09c.49,1.34,1.07,2.51,1.66,3.5-1.26,1.02-2.93,2.09-4.61,2.4-1.4.25-2.8.19-4.18-.2-.24-.65-.53-1.28-.87-1.89-.31-.05-.62-.12-.92-.21-1.09-2.93-3.33-5.57-5.18-7.76-.72-.85-1.67-1.97-1.99-2.52,0-.08-.02-.16-.04-.24,0,.02,0,.03,0,.04,0-.05-.02-.11-.03-.16,0,0,0-.01,0-.02-.16-1.28-1-9.04,2.65-13.71ZM7.31,64.39c-.44-.47-.82-.99-1.14-1.55-1.66-2.86-1.97-6.74-1.46-9.71,1.04-6.02,5.72-9.61,9.09-10.84.43.67.99,1.38,1.65,2.16.05-.02.1-.04.15-.06.57.89,1.36,1.82,2.3,2.93,1.69,2,4,4.72,4.47,6.86.43,2.03,1.18,3.97,1.92,5.77,1.5,3.66,3.05,6.44,4.77,8.54-.08.02-.16.04-.24.05-4.3.93-9.17,2-14.88.44-2.98-.81-4.14-1.76-4.82-2.49-.4-.44-.76-.92-1.07-1.44-.3-.24-.53-.46-.72-.66ZM39.73,80.54c-4.31,1.1-15.85,2.82-22.51,3.64-1.32.17-2.62-.51-3.37-1.76-.15-.25-.3-.5-.45-.76-.53-.31-1-.77-1.35-1.34-.46-.75-.9-1.55-1.33-2.38-1.05-2.04-1.94-4.38-2.67-7.02.84.38,1.85.75,3.07,1.08,2.47.67,4.81.92,6.99.92,3.66,0,6.91-.7,9.72-1.32,2.87-.62,5.35-1.17,7.36-.78.77.15,1.45.43,2.07.87,1.18.82,3.76,1.88,5.1,2.27,1.57.46,3.09.31,4.43.18.54-.05,1.05-.1,1.5-.1.97,0,1.65.13,2.12.36-1.71.68-3.44,1.31-5.17,1.9,1.18.16,2.32.05,3.35-.05.54-.05,1.05-.1,1.5-.1.97,0,1.65.13,2.12.36-4.1,1.63-8.27,2.99-12.47,4.05ZM56.83,74.51c-.47-.91-1.07-1.6-1.75-2.12-.02,0-.03.02-.05.02-.02-.04-.04-.07-.05-.11-1.59-1.17-3.52-1.43-4.9-1.43-.63,0-1.26.06-1.87.12-1.09.1-2.12.2-2.97-.04-.11-.03-.22-.07-.34-.11.41-.35.82-.71,1.21-1.09.31-.3.62-.6.92-.92-.21.02-.41.04-.61.06-1.09.1-2.12.2-2.97-.04-.11-.03-.22-.07-.34-.11.41-.35.82-.71,1.21-1.09,3.29-3.15,5.91-7.13,7.75-11.82.09-.04.19-.08.29-.12,0,.05,0,.09-.01.13-.15,1.33-.36,3.32-.04,5.54.57-1.1,1.09-2.25,1.56-3.45.09-.04.19-.08.29-.12,0,.05,0,.09-.01.13-.2,1.84-.53,4.92.6,8.15.48,1.35,1.1,2.41,1.66,3.21.58.58,1.21,1.1,1.87,1.56-.13.07-.27.13-.4.19.67.72,1.41,1.35,2.2,1.91-1.07.54-2.15,1.04-3.23,1.54ZM64.89,65.82c0,1.3-.3,2.53-.83,3.6-1.09-.48-2.33-1.25-3.43-2.51-.3-.35-.66-.76-1.01-1.3-.26-.24-.53-.51-.79-.8-.53-.61-1.27-1.45-1.74-2.8-.68-1.95-.47-3.92-.3-5.5.08-.75.56-2.68.73-3.41l.06-.25s.02-.1.03-.15c1.81-1.3,3.66-2.9,5.47-4.8v3.87c.6-.55,1.2-1.14,1.8-1.77v15.81ZM64.89,42.59c-7.01,9.13-14.62,11.81-17.23,11.19.82-.8,1.71-1.75,2.62-2.82-1.93.75-3.49.94-4.42.72,1.88-1.84,4.13-4.4,6.06-7.64,1.33-2.23,2.93-5.5,3.85-7.8,1.27-.74,2.52-2.12,4.15-3.9.82-.89,1.74-1.9,2.86-3.07.1-.1.2-.21.31-.32v3.99c.46-.49.95-1.01,1.49-1.57.1-.1.2-.21.31-.32v11.53ZM64.89,24.16s-.05.04-.08.07c-1.07,1.03-2.15,2.12-3.2,3.21-1.17,1.22-2.11,2.25-2.95,3.16-1.36,1.49-2.91,3.16-3.28,3.1-.46-.09-1.1-.9-1.4-1.29-.22-.28-.41-.58-.56-.87-.44-.22-.97-.89-1.24-1.23-.47-.6-.76-1.23-.93-1.77.04-.36.05-.71.06-1.03.02-.7.04-1.36.37-2.24.5-1.31,1.36-2.08,1.87-2.55l.16-.14c1.8-1.64,4.43-5.53,6.81-10.97.56.91,1.04,1.89,1.42,2.93.13-.27.25-.55.37-.83,1.66,2.68,2.58,6.02,2.58,9.52v.92Z"/>
      </g>
      <g>
        <path class="cls-2" d="M126.16,38.8c0-.05.02-.1.03-.16,0,.04-.02.07-.02.12,0,.02,0,.03,0,.04Z"/>
        <path class="cls-2" d="M126.16,38.8c0-.05.02-.1.03-.16,0,.04-.02.07-.02.12,0,.02,0,.03,0,.04Z"/>
        <path class="cls-2" d="M140.51,55.22c-.56-3.24-2.17-5.77-4.07-7.61,1.07,1.53,1.9,3.37,2.28,5.51.51,2.97.2,6.86-1.46,9.71-.32.56-.7,1.09-1.14,1.55-.68.73-1.84,1.67-4.82,2.49-4.55,1.24-8.58.81-12.2.12-.37.54-.74,1.03-1.12,1.49.08.02.16.04.24.05,4.3.93,9.17,2,14.88.44,2.98-.81,4.14-1.76,4.82-2.49.44-.47.82-.99,1.14-1.55,1.66-2.86,1.97-6.74,1.46-9.71ZM132.68,38c0,.47-.03.91-.05,1.32,2.36.82,4.83,2.34,6.95,4.5-1.95-2.63-4.42-4.6-6.9-5.82ZM132.7,77.93c-.43.83-.87,1.63-1.33,2.38-.76,1.25-2.05,1.93-3.37,1.76-6.67-.82-18.2-2.55-22.51-3.64-2.54-.64-5.07-1.39-7.58-2.25-.35-.04-.68-.06-.97-.06-.97,0-1.65.13-2.12.36,4.1,1.63,8.27,2.99,12.47,4.05,4.31,1.1,15.85,2.82,22.51,3.64,1.32.17,2.62-.51,3.37-1.76.46-.75.9-1.55,1.33-2.38,1.05-2.04,1.94-4.38,2.67-7.02-.78.35-1.69.69-2.78,1-.51,1.41-1.07,2.72-1.69,3.93ZM127.99,40.75s0-.01,0-.02c.16-1.28,1-9.04-2.65-13.71-.41-.52-.84-.98-1.29-1.39,3.06,4.71,2.29,11.78,2.14,13,0,0,0,.01,0,.02,0,.05-.02.1-.03.16,0-.01,0-.02,0-.04-.02.08-.04.16-.04.24-.32.55-1.27,1.67-1.99,2.52-1.85,2.19-4.09,4.83-5.18,7.76-1.38.39-2.78.45-4.18.2-.84-.15-1.67-.5-2.45-.93-.12.22-.24.43-.36.63,1.26,1.02,2.93,2.09,4.61,2.4,1.4.25,2.8.19,4.18-.2,1.09-2.93,3.33-5.57,5.18-7.76.72-.85,1.67-1.97,1.99-2.52,0-.08.02-.16.04-.24,0,.02,0,.03,0,.04,0-.05.02-.11.03-.16ZM118.46,17.41c1.74.41,5.52,1.29,8.8,4.5-.13-.18-.26-.36-.4-.54-3.51-4.5-8.19-5.6-10.19-6.06-1.78-.41-3.5-.51-4.96-.48.2.72.34,1.45.42,2.18,1.69-.15,3.96-.15,6.34.4ZM109.69,65.44c-.74,0-1.47.06-2.19.2-.07.01-.13.03-.2.05-.67.14-1.31.35-1.92.62-1.22-.78-2.38-1.69-3.44-2.71-.26-.25-.51-.5-.76-.77.79,1.03,1.64,1.99,2.56,2.87,1.06,1.02,2.22,1.93,3.44,2.71.61-.28,1.24-.49,1.92-.62.07-.02.13-.04.2-.05.72-.14,1.45-.2,2.19-.2,2.85-1.5,4.96-4.4,7.21-9.87.1-.24.2-.48.29-.71-.26.02-.52.03-.77.03-.62,0-1.24-.05-1.86-.14-2.05,4.66-4.04,7.22-6.66,8.59ZM107.94,30.06c.22.61.66,3.66.66,7.22,0,2.19-.48,3.27-.71,3.78-.08.18-.14.33-.18.44-.86,2.39-2.15,4.03-3,5.12-.44.56-1.04,1.32-1.91,2.12,0,0-.22.2-.61.49-.81-.69-1.85-1.63-2.97-2.85,1.75,2.24,3.53,3.91,4.77,4.95.39-.29.61-.49.61-.49.87-.8,1.47-1.56,1.91-2.12.85-1.09,2.14-2.72,3-5.12.04-.11.1-.26.18-.44.23-.51.71-1.59.71-3.78,0-3.56-.44-6.61-.66-7.22-.56-1.3-.88-2.85-1.09-4.39-.35.45-.7.88-1.08,1.28.11.35.23.69.37,1.01ZM104.17,11.27c1.22,1.76,1.83,3.65,1.74,5.4-.09,1.6-.73,2.83-1.5,4.16-1.73,2.99-4.46,4.82-6.39,5.61.26,1,.33,1.86.36,2.51,1.71-.24,5.6-2.18,7.83-6.03.77-1.33,1.41-2.56,1.5-4.16.11-2.05-.74-4.28-2.41-6.29-.35-.43-.73-.83-1.13-1.21ZM77.64,23.24c0-5.97,2.06-11.63,5.65-15.54.18-.19.37-.39.55-.57.03-.03.05-.05.08-.08,3.08-3.07,6.89-4.82,10.72-4.95,4.51-.15,9.25,1.91,12.74,5.43-.2-.27-.41-.55-.63-.81C103.18,2.42,97.86-.16,92.83,0c-3.83.13-7.64,1.88-10.72,4.95-.02.03-.05.05-.08.08-.18.18-.36.37-.55.57-3.59,3.91-5.65,9.57-5.65,15.54v42.58c0,3.88,1.54,7.47,4.07,9.79-1.44-2.15-2.27-4.84-2.27-7.69V23.24ZM98.8,71c1.09.1,2.12.2,2.97-.04.11-.03.22-.07.34-.11-.41-.35-.82-.71-1.21-1.09-.31-.29-.61-.6-.91-.91,0,0,0,0-.01,0-.85.25-1.88.15-2.97.04-.61-.06-1.24-.12-1.87-.12-2,0-5.16.54-6.75,3.63-.15-.07-.3-.14-.44-.2-.32.27-.66.52-1,.77,1.07.54,2.15,1.04,3.23,1.54,1.59-3.1,4.75-3.63,6.75-3.63.63,0,1.26.06,1.87.12ZM99.35,53.78c-.62-.61-1.28-1.3-1.96-2.07-2.43.43-8.54-1.68-14.67-8.36,6.84,8.52,14.1,11.04,16.63,10.43ZM92.87,57.95c.05.45.1.96.14,1.53,1.38,2.64,3.04,4.99,4.96,7.05-1.95-2.5-3.57-5.38-4.83-8.59-.09-.04-.19-.08-.29-.12,0,.05,0,.09.01.13ZM89.44,38.34c-.44-.26-.88-.59-1.33-.99.94,2.16,2.26,4.8,3.39,6.68,1.44,2.43,3.08,4.48,4.59,6.13-.96-1.2-1.91-2.55-2.8-4.03-1.33-2.23-2.93-5.5-3.85-7.8ZM92.68,18.63c.64.9,1.19,1.54,1.6,1.92l.13.12c.09.08.19.17.3.27-.75-1.13-1.54-1.87-2.03-2.31ZM85.41,27.44c1.17,1.22,2.11,2.25,2.95,3.16,1.36,1.49,2.91,3.16,3.28,3.1.46-.09,1.1-.9,1.4-1.29.47-.6.76-1.23.93-1.77-.04-.36-.05-.71-.06-1.03-.02-.7-.04-1.36-.37-2.24-.5-1.31-1.36-2.08-1.87-2.55l-.16-.14-.07-.06c.11.2.21.41.3.65.34.88.35,1.54.37,2.24,0,.33.01.67.06,1.03-.18.54-.46,1.17-.93,1.77-.31.39-.95,1.2-1.4,1.29-.37.06-1.92-1.61-3.28-3.1-.83-.91-1.78-1.94-2.95-3.16-.49-.51-.99-1.02-1.49-1.52v.34s.05.04.08.07c1.07,1.03,2.15,2.12,3.2,3.21ZM89.56,22.43c-1.51-2.04-3.25-5.02-4.86-8.72-.16.25-.31.51-.44.78,1.92,3.8,3.86,6.56,5.31,7.94ZM88.42,58.61c-.08-.75-.56-2.68-.73-3.41l-.06-.25s-.02-.1-.03-.15c-.53-.37-1.05-.78-1.58-1.21.21.89.54,2.3.61,2.91.17,1.58.39,3.55-.3,5.5-.47,1.34-1.21,2.18-1.74,2.8-.77.88-1.61,1.53-2.41,1.99.11.93.38,1.83.78,2.62,1.09-.48,2.33-1.25,3.43-2.51.53-.61,1.27-1.45,1.74-2.8.68-1.95.47-3.92.3-5.5Z"/>
        <path class="cls-1" d="M127.99,40.75c0,.05-.02.1-.03.16,0-.01,0-.02,0-.04,0-.04.01-.08.02-.12Z"/>
        <path class="cls-1" d="M127.96,40.86s0,.03,0,.04c0-.05.02-.11.03-.16,0,.04-.02.07-.02.12Z"/>
        <path class="cls-1" d="M144.9,54.18c-.74-4.28-2.78-7.78-5.33-10.36,1.68,2.27,2.98,5.05,3.53,8.26.65,3.74.41,9.02-1.92,13.3h0c-.96,6.01-2.53,11.13-4.64,15.25-.48.94-1,1.86-1.52,2.71-1.53,2.53-4.02,4-6.65,4-.29,0-.57-.02-.86-.05-6.51-.8-18.32-2.54-22.99-3.73-7.62-1.93-15.14-4.78-22.35-8.47-.83-.43-1.59-.96-2.28-1.59,1.06,1.57,2.44,2.86,4.07,3.69,7.21,3.69,14.73,6.54,22.35,8.47,4.67,1.19,16.48,2.92,22.99,3.73.29.04.57.05.86.05,2.63,0,5.12-1.48,6.65-4,.52-.86,1.03-1.77,1.52-2.71,2.1-4.12,3.67-9.25,4.64-15.25h0c2.33-4.28,2.57-9.57,1.92-13.31ZM127.33,45.21c-1.69,2-4,4.72-4.47,6.86-.43,2.03-1.18,3.97-1.92,5.77-1.5,3.66-3.05,6.44-4.77,8.54.08.02.16.04.24.05.87.19,1.76.38,2.68.56,1.29-1.87,2.48-4.19,3.65-7.05.74-1.81,1.49-3.75,1.92-5.77.47-2.13,2.78-4.86,4.47-6.86.94-1.11,1.73-2.04,2.3-2.93,1.55.57,3.39,1.64,5.02,3.22-1.93-2.77-4.64-4.54-6.81-5.32-.57.89-1.36,1.82-2.3,2.93ZM98.43,76.24c1.34.13,2.86.28,4.43-.18,1.34-.39,3.92-1.44,5.1-2.27.62-.44,1.3-.72,2.07-.87,2-.39,4.48.15,7.36.78,2.82.61,6.07,1.32,9.72,1.32,2.19,0,4.52-.25,6.99-.92.1-.03.2-.05.29-.08.36-.98.69-2.02.99-3.1-.84.38-1.85.75-3.07,1.08-2.47.67-4.81.92-6.99.92-3.66,0-6.91-.7-9.72-1.32-2.87-.62-5.35-1.17-7.36-.78-.77.15-1.45.43-2.07.87-1.18.82-3.76,1.88-5.1,2.27-1.57.46-3.09.31-4.43.18-.54-.05-1.05-.1-1.5-.1-.97,0-1.65.13-2.12.36,1.62.65,3.25,1.24,4.89,1.8.17.01.35.03.53.05ZM130.83,37.22c.61.21,1.23.47,1.85.78.09-3.96-.48-9.99-4.03-14.53-.45-.58-.92-1.1-1.4-1.56,3.58,5.02,3.8,11.62,3.57,15.31ZM110.97,21.03c.12,2.13.28,5.05.98,6.67.74,1.74,1.14,6.14,1.14,9.58s-.88,5.47-1.22,6.21l-.04.09c-.49,1.34-1.07,2.51-1.66,3.5.63.51,1.36,1.03,2.15,1.47.46-.85.91-1.8,1.3-2.87l.04-.09c.34-.75,1.22-2.74,1.22-6.21s-.39-7.83-1.14-9.58c-.7-1.63-.86-4.55-.98-6.67-.02-.3-.04-.6-.05-.91,1.49-.1,3.22-.05,4.87.34,1.42.33,4.14.97,6.47,3.07-.16-.25-.33-.48-.51-.71-2.53-3.24-6.06-4.06-7.75-4.46-1.65-.38-3.38-.44-4.87-.34.02.3.04.61.05.91ZM107.36,54.97c.69-.63,1.24-1.23,1.68-1.76,1.76,1.48,4.2,3.08,6.84,3.56.15.03.31.05.47.07.18-.41.36-.83.54-1.28.1-.24.2-.48.29-.71-.26.02-.52.03-.77.03-.78,0-1.56-.07-2.32-.21-2.65-.48-5.08-2.08-6.84-3.56-.44.52-1,1.13-1.68,1.76-.12.11-2.96,2.69-6.71,3.85-.57.18-1.18.28-1.86.29,1.17,2.19,2.57,4.14,4.19,5.82-.88-1.15-1.68-2.39-2.39-3.72.68-.02,1.3-.12,1.86-.29,3.75-1.16,6.6-3.74,6.71-3.85ZM111.71,14.83c-.58-2.11-1.66-4.16-3.18-6.01-.37-.45-.76-.88-1.16-1.29,1.67,2.28,2.68,4.82,2.96,7.37.43-.04.89-.06,1.38-.08ZM95.67,32.09c-.32.64-.7,1.23-1.13,1.78-.41.51-1.09,1.38-2.02,2.04.8,1.74,1.82,3.71,2.66,5.12,1.27,2.14,2.71,3.93,4.03,5.36-.77-.98-1.53-2.07-2.24-3.26-.84-1.41-1.85-3.38-2.66-5.12.93-.67,1.61-1.53,2.02-2.04.43-.55.81-1.14,1.13-1.78.35.03.73.04,1.14,0,2.55-.25,6.13-2.07,8.96-5.13-.34-1.06-.56-2.22-.71-3.38-2.94,3.83-7.15,6.13-10.04,6.42-.42.04-.8.04-1.14,0ZM92.49,18.46l.13.12s.04.04.06.06c-1.31-1.86-3-4.82-4.58-8.72,2.03-1.59,4.34-2.48,6.65-2.56.1,0,.21,0,.31,0,3.16,0,6.57,1.49,9.11,3.92-.2-.3-.43-.6-.67-.89-2.59-3.14-6.57-5.12-10.24-5.12-.1,0-.21,0-.31,0-2.31.07-4.62.97-6.65,2.56,2.34,5.78,4.91,9.48,6.18,10.64ZM97.98,66.53c.63.81,1.31,1.59,2.01,2.33.1-.03.21-.06.32-.1-.41-.35-.82-.71-1.21-1.09-.38-.37-.76-.75-1.12-1.13ZM96.59,26.86c.39-.05.88-.19,1.44-.41-.1-.39-.22-.8-.39-1.22-.84-2.19-2.12-3.53-2.92-4.27.4.6.79,1.33,1.12,2.17.59,1.52.71,2.82.75,3.74ZM97.39,51.71c.06,0,.11-.02.17-.03-.46-.45-.94-.94-1.44-1.49.42.54.85,1.04,1.27,1.52ZM87.73,68.56c-.77.89-1.64,1.66-2.58,2.32.93.46,1.85.91,2.79,1.33.56-.47,1.09-.99,1.58-1.55.67-.77,1.93-2.21,2.75-4.55.86-2.45.88-4.82.74-6.62-.61-1.16-1.16-2.38-1.66-3.64-.09-.04-.19-.08-.29-.12,0,.05,0,.09.01.13.2,1.84.53,4.92-.6,8.15-.82,2.34-2.08,3.78-2.75,4.55ZM91.44,24.62c-.5-.92-1.15-1.51-1.57-1.9l-.16-.14s-.1-.09-.15-.15c.68.93,1.32,1.66,1.88,2.18ZM82.69,43.31c-.19-.23-.38-.47-.57-.72v-11.53c.1.11.2.21.31.32,1.12,1.17,2.05,2.18,2.86,3.07,1.06,1.17,1.97,2.15,2.82,2.91-.17-.39-.33-.76-.47-1.11-1.27-.74-2.52-2.12-4.15-3.9-.82-.89-1.74-1.9-2.86-3.07-.1-.1-.2-.21-.31-.32v11.53c.79,1.02,1.58,1.96,2.36,2.82ZM82.18,66.8c-.04-.32-.05-.65-.05-.98v-15.81c1.29,1.35,2.6,2.56,3.9,3.6-.05-.19-.09-.37-.12-.5l-.06-.25s-.02-.1-.03-.15c-1.81-1.3-3.66-2.9-5.47-4.8v15.81c0,1.3.3,2.53.83,3.6.33-.15.67-.31,1.02-.52ZM82.12,23.83v-.59c0-3.17.75-6.21,2.13-8.75-.45-.9-.91-1.86-1.35-2.88-1.66,2.68-2.58,6.02-2.58,9.52v.92s.05.04.08.07c.57.55,1.14,1.12,1.71,1.7Z"/>
        <path class="cls-3" d="M143.11,52.08c-.56-3.21-1.85-5.98-3.53-8.26-2.12-2.16-4.6-3.68-6.95-4.5.02-.41.04-.85.05-1.32-.62-.3-1.24-.57-1.85-.78.22-3.7,0-10.3-3.57-15.31-3.27-3.21-7.05-4.09-8.8-4.5-2.38-.55-4.64-.55-6.34-.4-.08-.73-.22-1.46-.42-2.18-.49.02-.95.04-1.38.08-.28-2.55-1.29-5.09-2.96-7.37-3.5-3.52-8.23-5.58-12.74-5.43-3.83.13-7.64,1.88-10.72,4.95-.02.03-.05.05-.08.08-.18.18-.36.37-.55.57-3.59,3.91-5.65,9.57-5.65,15.54v42.58c0,2.85.83,5.54,2.27,7.69.69.63,1.45,1.17,2.28,1.59,7.21,3.69,14.73,6.54,22.35,8.47,4.67,1.19,16.48,2.92,22.99,3.73.29.04.57.05.86.05,2.63,0,5.12-1.48,6.65-4,.52-.86,1.03-1.77,1.52-2.71,2.1-4.12,3.67-9.25,4.64-15.25h0c2.33-4.28,2.57-9.57,1.92-13.31ZM115.79,20.46c1.7.39,5.23,1.22,7.75,4.46.18.23.35.47.51.71.45.4.88.86,1.29,1.39,3.65,4.67,2.81,12.43,2.65,13.71,0,0,0,.01,0,.02,0,.05-.02.1-.03.16,0-.01,0-.02,0-.04-.02.08-.04.16-.04.24-.32.55-1.27,1.67-1.99,2.52-1.85,2.19-4.09,4.83-5.18,7.76-1.38.39-2.78.45-4.18.2-1.68-.3-3.35-1.38-4.61-2.4.12-.2.24-.41.36-.63-.79-.44-1.52-.96-2.15-1.47.59-.99,1.17-2.16,1.66-3.5l.04-.09c.34-.75,1.22-2.74,1.22-6.21s-.39-7.83-1.14-9.58c-.7-1.63-.86-4.55-.98-6.67-.02-.3-.04-.6-.05-.91,1.49-.1,3.22-.05,4.87.34ZM118.21,56.98c.26,0,.52,0,.77-.03-.09.24-.19.48-.29.71-2.24,5.47-4.35,8.37-7.21,9.87-.74,0-1.47.06-2.19.2-.07.01-.13.03-.2.05-.67.14-1.31.35-1.92.62-1.22-.78-2.38-1.69-3.44-2.71-.92-.88-1.77-1.84-2.56-2.87-1.62-1.69-3.02-3.63-4.19-5.82.68-.02,1.3-.12,1.86-.29,3.75-1.16,6.6-3.74,6.71-3.85.69-.63,1.24-1.23,1.68-1.76,1.76,1.48,4.2,3.08,6.84,3.56.77.14,1.54.21,2.32.21.26,0,.52,0,.77-.03-.09.24-.19.48-.29.71-.18.44-.36.87-.54,1.28.61.09,1.23.14,1.86.14ZM108.65,27.77c.2,1.54.53,3.09,1.09,4.39.22.61.66,3.66.66,7.22,0,2.19-.48,3.27-.71,3.78-.08.18-.14.33-.18.44-.86,2.39-2.15,4.03-3,5.12-.44.56-1.04,1.32-1.91,2.12,0,0-.22.2-.61.49-1.24-1.04-3.01-2.7-4.77-4.95-1.33-1.43-2.76-3.22-4.03-5.36-.84-1.41-1.85-3.38-2.66-5.12.93-.67,1.61-1.53,2.02-2.04.43-.55.81-1.14,1.13-1.78.35.03.73.04,1.14,0,2.89-.28,7.1-2.58,10.04-6.42.15,1.16.38,2.32.71,3.38.38-.4.74-.83,1.08-1.28ZM92.96,5.26c.1,0,.21,0,.31,0,3.66,0,7.65,1.98,10.24,5.12.24.29.47.59.67.89.4.38.78.78,1.13,1.21,1.66,2.01,2.51,4.24,2.41,6.29-.09,1.6-.73,2.83-1.5,4.16-2.23,3.85-6.12,5.79-7.83,6.03-.03-.66-.1-1.52-.36-2.51-.56.23-1.05.36-1.44.41-.04-.91-.16-2.22-.75-3.74-.33-.85-.72-1.57-1.12-2.17-.11-.1-.21-.19-.3-.27l-.13-.12c-.41-.38-.96-1.02-1.6-1.92-.02-.03-.04-.04-.06-.06l-.13-.12c-1.27-1.16-3.84-4.86-6.18-10.64,2.03-1.59,4.34-2.48,6.65-2.56ZM80.33,21.14c0-3.5.92-6.85,2.58-9.52.44,1.01.9,1.97,1.35,2.88.14-.27.29-.52.44-.78,1.62,3.7,3.35,6.68,4.86,8.72.05.05.1.1.15.15l.16.14c.42.38,1.07.97,1.57,1.9l.07.06.16.14c.51.47,1.37,1.24,1.87,2.55.34.88.35,1.54.37,2.24,0,.33.01.67.06,1.03-.18.54-.46,1.17-.93,1.77-.31.39-.95,1.2-1.4,1.29-.37.06-1.92-1.61-3.28-3.1-.83-.91-1.78-1.94-2.95-3.16-1.05-1.1-2.14-2.18-3.2-3.21-.03-.03-.05-.05-.08-.07v-.34c-.57-.58-1.14-1.14-1.71-1.7-.03-.03-.05-.05-.08-.07v-.92ZM80.33,28.96c.1.11.2.21.31.32,1.12,1.17,2.05,2.18,2.86,3.07,1.63,1.78,2.89,3.16,4.15,3.9.14.35.3.72.47,1.11.45.4.89.73,1.33.99.92,2.3,2.53,5.57,3.85,7.8.89,1.49,1.84,2.83,2.8,4.03,0,.01.01.02.03.03.5.54.98,1.03,1.44,1.49-.05.01-.11.03-.17.03.68.77,1.34,1.46,1.96,2.07-2.53.61-9.79-1.91-16.63-10.43-.01-.01-.02-.03-.03-.04-.79-.86-1.58-1.8-2.36-2.82v-11.53ZM82.18,66.8c-.35.21-.69.38-1.02.52-.53-1.07-.83-2.3-.83-3.6v-15.81c1.82,1.91,3.67,3.51,5.47,4.8,0,.05.02.1.03.15l.06.25c.03.13.07.3.12.5.53.43,1.05.83,1.58,1.21,0,.05.02.1.03.15l.06.25c.17.73.65,2.66.73,3.41.17,1.58.39,3.55-.3,5.5-.47,1.34-1.21,2.18-1.74,2.8-1.1,1.27-2.34,2.04-3.43,2.51-.4-.8-.66-1.69-.78-2.62ZM90.18,74.51c-1.09-.49-2.16-1-3.23-1.54.34-.24.67-.49,1-.77-.94-.43-1.86-.87-2.79-1.33.94-.66,1.8-1.43,2.58-2.32.67-.77,1.93-2.21,2.75-4.55,1.13-3.23.8-6.31.6-8.15,0-.04,0-.08-.01-.13.1.04.2.08.29.12.5,1.27,1.05,2.48,1.66,3.64-.04-.57-.09-1.09-.14-1.53,0-.04,0-.08-.01-.13.1.04.2.08.29.12,1.26,3.21,2.88,6.08,4.83,8.59.36.39.74.77,1.12,1.13.39.38.8.75,1.21,1.09-.11.04-.22.07-.32.1.3.31.6.61.91.91.39.38.8.75,1.21,1.09-.12.04-.23.07-.34.11-.85.25-1.88.15-2.97.04-.61-.06-1.24-.12-1.87-.12-2,0-5.16.54-6.75,3.63ZM134.5,80.03c-.43.83-.87,1.63-1.33,2.38-.76,1.25-2.05,1.93-3.37,1.76-6.67-.82-18.2-2.55-22.51-3.64-4.2-1.06-8.36-2.41-12.47-4.05.47-.23,1.14-.36,2.12-.36.3,0,.63.02.97.06-1.64-.56-3.27-1.15-4.89-1.8.47-.23,1.14-.36,2.12-.36.44,0,.96.05,1.5.1,1.34.13,2.86.28,4.43-.18,1.34-.39,3.92-1.44,5.1-2.27.62-.44,1.3-.72,2.07-.87,2-.39,4.48.15,7.36.78,2.82.61,6.07,1.32,9.72,1.32,2.19,0,4.52-.25,6.99-.92,1.22-.33,2.23-.7,3.07-1.08-.3,1.08-.63,2.12-.99,3.1,1.09-.3,2.01-.65,2.78-1-.74,2.64-1.63,4.99-2.67,7.02ZM139.04,64.93c-.32.56-.7,1.09-1.14,1.55-.68.73-1.84,1.67-4.82,2.49-5.7,1.55-10.58.49-14.88-.44-.08-.02-.16-.04-.24-.05.38-.46.75-.96,1.12-1.49-.92-.17-1.81-.37-2.68-.56-.08-.02-.16-.04-.24-.05,1.73-2.09,3.27-4.88,4.77-8.54.74-1.81,1.49-3.75,1.92-5.77.47-2.13,2.78-4.86,4.47-6.86.94-1.11,1.73-2.04,2.3-2.93,2.17.79,4.88,2.56,6.81,5.32,1.9,1.84,3.51,4.37,4.07,7.61.51,2.97.2,6.86-1.46,9.71Z"/>
      </g>
    </g>
  </g>
</svg>