<?xml version="1.0" encoding="UTF-8"?>
<svg id="Layer_2" data-name="Layer 2" xmlns="http://www.w3.org/2000/svg" viewBox="0 0 146.08 89.99">
  <defs>
    <style>
      .cls-1 {
        fill: #000;
      }

      .cls-1, .cls-2, .cls-3 {
        stroke-width: 0px;
      }

      .cls-2 {
        fill: #f2055d;
      }

      .cls-3 {
        fill: #05f3db;
      }
    </style>
  </defs>
  <g id="Layer_6" data-name="Layer 6">
    <g>
      <path class="cls-3" d="M17.36,39.04c0-.05-.02-.11-.03-.16,0,.04.02.07.02.12,0,.02,0,.03,0,.04Z"/>
      <path class="cls-3" d="M17.35,38.99s-.01-.08-.02-.12c0,.05.02.11.03.16,0-.01,0-.02,0-.04Z"/>
      <path class="cls-3" d="M63.47,64.1c0,1.3-.3,2.55-.84,3.62-.84-.37-1.77-.91-2.66-1.72.35.54.71.96,1.02,1.3,1.11,1.27,2.36,2.05,3.45,2.53.54-1.08.84-2.32.84-3.62v-15.91c-.6.63-1.2,1.23-1.81,1.78v12.02ZM63.47,33.14v7.59c-4.55,5.93-9.35,9.15-12.89,10.53-.91,1.08-1.81,2.03-2.64,2.84,2.62.63,10.28-2.07,17.34-11.25v-11.6c-.1.11-.2.21-.31.32-.54.57-1.04,1.09-1.5,1.58ZM62.68,13.8c-.12.29-.25.56-.37.83.75,2.04,1.16,4.3,1.16,6.63v.93s-.05.04-.08.07c-1.07,1.04-2.16,2.13-3.22,3.23-1.17,1.23-2.13,2.26-2.97,3.18-1.37,1.49-2.93,3.17-3.3,3.12-.05-.01-.11-.03-.17-.06.15.29.33.59.56.87.31.39.95,1.21,1.41,1.3.37.06,1.93-1.62,3.3-3.12.84-.92,1.79-1.95,2.97-3.18,1.06-1.1,2.15-2.19,3.22-3.23.03-.03.05-.05.08-.07v-.93c0-3.52-.93-6.89-2.59-9.58ZM8.71,83.23c-2.12-4.15-3.69-9.3-4.66-15.34h0c-2.34-4.31-2.58-9.63-1.93-13.39,1.37-7.92,7.16-13.14,12.35-14.95-.23-3.85,0-10.84,4-15.94,3.53-4.53,8.24-5.63,10.25-6.1,2.39-.55,4.67-.55,6.37-.4.31-2.87,1.56-5.74,3.62-8.23,3.58-4.33,8.93-6.92,13.99-6.76,3.86.13,7.68,1.89,10.79,4.98.02.03.05.05.08.08.02.02.04.04.06.06-.41-.56-.85-1.09-1.31-1.6-.19-.2-.37-.39-.55-.57-.03-.03-.05-.05-.08-.08C58.58,1.9,54.75.13,50.89,0c-5.06-.16-10.41,2.43-13.99,6.76-2.06,2.5-3.3,5.36-3.62,8.23-1.7-.15-3.98-.15-6.37.4-2.01.47-6.72,1.57-10.25,6.1-3.99,5.11-4.23,12.09-4,15.94-5.2,1.81-10.98,7.03-12.35,14.95-.65,3.76-.41,9.08,1.93,13.38h0c.97,6.04,2.55,11.2,4.66,15.34.49.95,1,1.87,1.53,2.73.52.86,1.15,1.59,1.86,2.19-.02-.03-.03-.05-.05-.08-.52-.86-1.04-1.79-1.53-2.73ZM55.41,72.83c.68.52,1.29,1.21,1.76,2.13,1.09-.5,2.17-1.01,3.25-1.55-.79-.55-1.53-1.19-2.21-1.92-.93.46-1.86.9-2.79,1.33ZM59.26,9.97c-.68-.53-1.39-.98-2.12-1.35-2.27,5.38-4.69,8.83-5.9,9.94l-.13.12c-.74.67-2.27,2.06-3.24,4.57-.59,1.53-.71,2.84-.75,3.76-1.21-.17-3.51-1.19-5.54-3.13,2.28,3.33,5.76,5.02,7.35,5.24.04-.92.16-2.23.75-3.76.97-2.51,2.5-3.9,3.24-4.57l.13-.12c1.28-1.17,3.86-4.89,6.22-10.71ZM54.47,58.17c-.1.04-.2.08-.29.12-.47,1.2-.99,2.36-1.57,3.47.13.85.33,1.73.64,2.63.83,2.36,2.09,3.8,2.77,4.58.23.26.47.52.71.76-.57-.8-1.2-1.86-1.67-3.23-1.14-3.25-.8-6.35-.6-8.2,0-.04,0-.08.01-.13ZM48.57,69.19c-.42,0-.85.03-1.26.06-.3.32-.6.62-.92.92-.4.38-.8.75-1.22,1.1.12.04.23.07.34.11.86.25,1.89.15,2.99.04.61-.06,1.25-.12,1.88-.12,1.39,0,3.33.26,4.93,1.44-1.62-3.02-4.75-3.55-6.74-3.55ZM53,38.24c-.85-.61-1.49-1.37-1.91-1.9-.79,1.7-1.77,3.57-2.57,4.93-2.35,3.95-5.26,6.75-7.05,8.26-.39-.3-.61-.49-.61-.5-.14-.13-.27-.25-.39-.38.09.13.19.25.28.36.44.56,1.05,1.33,1.92,2.13,0,0,.23.2.61.5,1.79-1.51,4.69-4.3,7.05-8.26.84-1.42,1.86-3.4,2.67-5.15ZM48.87,76.69c-1.04.1-2.18.21-3.37.05-2.43.82-4.88,1.54-7.34,2.17-4.34,1.1-15.94,2.84-22.65,3.67-.71.09-1.42-.06-2.04-.42.15.26.3.51.45.76.76,1.26,2.06,1.94,3.39,1.77,6.71-.83,18.31-2.56,22.65-3.67,4.23-1.07,8.41-2.43,12.54-4.07-.47-.23-1.15-.36-2.13-.36-.45,0-.96.05-1.51.11ZM49.84,34.39c-.13.01-.26.02-.4.02.28.35.65.78,1.1,1.18-.26-.38-.5-.78-.7-1.2ZM35.74,67.94c.74,0,1.48.06,2.2.2.07.01.14.03.2.05.68.14,1.32.35,1.93.63,1.23-.79,2.39-1.7,3.46-2.73,1.95-1.87,3.62-4.09,4.98-6.63-.68-.02-1.3-.12-1.87-.3-.28-.08-.56-.18-.82-.28-1.17,1.91-2.54,3.61-4.09,5.09-1.07,1.02-2.23,1.94-3.46,2.73-.61-.28-1.25-.49-1.93-.63-.07-.02-.14-.04-.2-.05-.72-.14-1.46-.2-2.2-.2-.79-.42-1.53-.95-2.23-1.61,1.22,1.74,2.53,2.93,4.04,3.72ZM35.26,49.48c-.59-.99-1.18-2.17-1.67-3.52l-.04-.09c-.34-.75-1.23-2.75-1.23-6.25s.39-7.88,1.14-9.63c.7-1.64.86-4.57.98-6.71.02-.3.04-.61.05-.91-.61-.04-1.26-.06-1.93-.04-.13,1.95-.34,4.19-.92,5.55-.75,1.75-1.14,6.17-1.14,9.63s.89,5.5,1.23,6.25l.04.09c.49,1.35,1.08,2.52,1.67,3.52-1.27,1.02-2.95,2.11-4.64,2.41-1.1.2-2.19.2-3.28.01.34.62.64,1.25.88,1.9,1.39.39,2.8.45,4.21.2,1.69-.31,3.37-1.39,4.64-2.41ZM12.21,67.28c-2.15-.59-3.36-1.24-4.13-1.84.31.52.67,1.01,1.08,1.45.69.73,1.86,1.68,4.85,2.5,5.74,1.56,10.64.5,14.97-.44.08-.02.16-.04.24-.05-1.74-2.11-3.29-4.91-4.8-8.59-.74-1.82-1.49-3.77-1.93-5.81-.47-2.14-2.79-4.89-4.49-6.9-.94-1.11-1.74-2.05-2.31-2.95-.05.02-.1.04-.15.06.21.25.43.51.65.78,1.7,2.01,4.02,4.75,4.49,6.9.43,2.04,1.18,3.99,1.93,5.81,1.51,3.68,3.07,6.48,4.8,8.59-.08.02-.16.04-.24.05-4.32.94-9.23,2.01-14.97.44Z"/>
      <path class="cls-2" d="M19.17,41.15c0-.05-.02-.11-.03-.16,0,.04.02.07.02.12,0,.02,0,.03,0,.04Z"/>
      <path class="cls-2" d="M19.16,41.11s-.01-.08-.02-.12c0,.05.02.11.03.16,0-.01,0-.02,0-.04Z"/>
      <path class="cls-2" d="M64.11,7.74c-.17-.17-.33-.35-.49-.51,2.79,3.8,4.37,8.8,4.37,14.03v42.84c0,4.96-2.51,9.46-6.38,11.44-7.25,3.71-14.82,6.58-22.48,8.52-4.7,1.19-16.58,2.94-23.13,3.75-.29.04-.58.05-.87.05-1.75,0-3.44-.65-4.83-1.83,1.54,2.49,4.02,3.95,6.64,3.95.29,0,.58-.02.87-.05,6.55-.81,18.43-2.56,23.13-3.75,7.66-1.94,15.23-4.81,22.48-8.52,3.88-1.99,6.38-6.48,6.38-11.44V23.38c0-6.01-2.07-11.7-5.68-15.63ZM59.67,55.54l.06-.25s.02-.1.03-.15c1.22-.88,2.46-1.89,3.7-3.05v-3.89c-1.83,1.92-3.69,3.53-5.51,4.83,0,.05-.02.1-.03.15l-.06.25c-.18.73-.65,2.68-.74,3.43-.17,1.59-.39,3.57.3,5.53.47,1.35,1.21,2.2,1.75,2.81.26.3.52.57.79.81-.27-.42-.53-.92-.74-1.51-.69-1.96-.47-3.94-.3-5.53.08-.75.56-2.69.74-3.43ZM56.11,36.45c-.93,2.31-2.54,5.6-3.88,7.84-1.94,3.26-4.21,5.84-6.09,7.69.93.22,2.5.03,4.44-.73,1.17-1.39,2.37-3.02,3.46-4.85,1.34-2.24,2.95-5.53,3.88-7.84,1.27-.74,2.54-2.13,4.18-3.92.43-.46.88-.97,1.38-1.51v-4.01c-.1.11-.2.21-.31.32-1.13,1.18-2.06,2.19-2.88,3.09-1.64,1.79-2.9,3.17-4.18,3.92ZM54.02,22.72l-.16.14c-.51.47-1.38,1.25-1.88,2.56-.34.88-.36,1.55-.37,2.25,0,.33-.01.68-.06,1.04.18.54.47,1.18.94,1.78.27.34.81,1.02,1.25,1.24-.16-.32-.29-.63-.38-.91.05-.36.05-.71.06-1.04.02-.7.04-1.37.37-2.25.51-1.32,1.37-2.09,1.88-2.56l.16-.14c1.72-1.57,4.19-5.17,6.48-10.2-.39-1.05-.87-2.03-1.43-2.95-2.39,5.47-5.04,9.38-6.85,11.03ZM57.83,71.08c.13.14.25.29.38.42.14-.06.27-.13.41-.2-.66-.46-1.3-.99-1.88-1.57.42.58.81,1.03,1.09,1.35ZM41.57,23.89c-.19-.26-.36-.54-.52-.82-.77-1.34-1.42-2.58-1.51-4.18-.11-2.06.75-4.31,2.42-6.33,2.6-3.16,6.61-5.15,10.3-5.15.1,0,.21,0,.32,0,1.55.05,3.1.47,4.57,1.22.11-.25.21-.5.32-.76-2.04-1.59-4.37-2.5-6.69-2.57-.1,0-.21,0-.32,0-3.68,0-7.69,2-10.3,5.15-1.67,2.02-2.53,4.27-2.42,6.33.09,1.61.74,2.85,1.51,4.18.66,1.15,1.47,2.12,2.33,2.94ZM55.41,72.83s-.07-.05-.1-.08c.02.03.04.07.05.11.02,0,.03-.02.05-.02ZM52.67,56.05c-.1.04-.2.08-.29.12-1.85,4.72-4.48,8.72-7.79,11.89-.4.38-.8.75-1.22,1.1.12.04.23.07.34.11.86.25,1.89.15,2.99.04.2-.02.41-.04.62-.06,2.07-2.16,3.85-4.67,5.3-7.5-.32-2.23-.11-4.23.04-5.57,0-.04,0-.08.01-.13ZM51.2,36.13c-.23-.17-.45-.34-.65-.53.14.2.28.4.42.59.04.05.08.1.13.16.03-.07.07-.14.1-.22ZM35.93,41.75c.87,2.41,2.16,4.06,3.02,5.15.37.47.86,1.09,1.53,1.75-.84-1.09-1.96-2.64-2.74-4.79-.04-.11-.1-.26-.19-.44-.23-.52-.71-1.6-.71-3.8,0-3.58.44-6.65.66-7.27.56-1.31.89-2.86,1.09-4.42,2.96,3.86,7.19,6.17,10.1,6.45.27.03.52.04.75.03-.1-.13-.19-.24-.28-.34-.43-.55-.81-1.15-1.13-1.79-.35.03-.73.04-1.15,0-2.91-.29-7.14-2.6-10.1-6.45-.2,1.55-.53,3.11-1.09,4.42-.23.62-.66,3.69-.66,7.27,0,2.2.48,3.28.71,3.8.08.18.14.33.19.44ZM12.12,80.8c.35.58.82,1.04,1.35,1.35-.3-.53-.6-1.08-.88-1.64-1.05-2.05-1.95-4.41-2.69-7.07.85.39,1.86.76,3.09,1.09,2.49.68,4.83.93,7.03.93,3.68,0,6.95-.71,9.78-1.33,2.89-.63,5.39-1.18,7.4-.78.78.15,1.46.43,2.08.87,1.18.83,3.78,1.89,5.13,2.28.37.11.73.18,1.09.23,1.74-.59,3.48-1.22,5.2-1.91-.47-.23-1.15-.36-2.13-.36-.45,0-.96.05-1.51.11-1.35.13-2.88.28-4.46-.18-1.35-.39-3.95-1.45-5.13-2.28-.62-.44-1.3-.72-2.08-.87-2.01-.4-4.51.15-7.4.78-2.83.62-6.1,1.33-9.78,1.33-2.2,0-4.55-.25-7.03-.93-1.23-.33-2.24-.7-3.09-1.09.74,2.66,1.64,5.02,2.69,7.07.43.83.88,1.64,1.34,2.4ZM31.31,57.11c2.66-.48,5.11-2.09,6.88-3.58.45.53,1,1.14,1.69,1.77.11.1,2.57,2.34,5.93,3.59.31-.5.61-1.01.89-1.54-.68-.02-1.3-.12-1.87-.3-3.77-1.16-6.64-3.76-6.75-3.87-.69-.63-1.25-1.24-1.69-1.77-1.77,1.49-4.22,3.1-6.88,3.58-.77.14-1.55.21-2.34.21-.26,0-.52,0-.78-.03.09.24.19.48.29.72,1.63,3.98,3.19,6.61,5.02,8.32-1.11-1.57-2.14-3.6-3.21-6.21-.1-.24-.2-.48-.29-.72.26.02.52.03.78.03.79,0,1.57-.07,2.34-.21ZM17.33,38.88c0,.05.02.11.03.16,0-.01,0-.02,0-.04.02.08.04.16.05.24.32.55,1.28,1.68,2,2.54,1.86,2.2,4.12,4.86,5.21,7.81.31.09.62.16.93.21-1.19-2.19-2.88-4.19-4.33-5.9-.72-.85-1.68-1.99-2-2.54,0-.08-.02-.16-.05-.24,0,.02,0,.03,0,.04,0-.05-.02-.11-.03-.16,0,0,0-.01,0-.02-.16-1.29-1.01-9.09,2.66-13.8,2.54-3.26,6.09-4.09,7.8-4.48.99-.23,2-.34,2.98-.37.02-.4.05-.79.07-1.16.02-.3.04-.61.05-.91-1.5-.11-3.24-.05-4.9.34-1.71.4-5.26,1.23-7.8,4.48-3.67,4.7-2.83,12.51-2.66,13.8,0,0,0,.01,0,.02ZM6.54,55.55c1.03-5.96,5.62-9.56,8.99-10.84-.66-.79-1.22-1.49-1.66-2.17-3.39,1.23-8.09,4.85-9.14,10.9-.51,2.99-.2,6.9,1.47,9.77.33.57.71,1.09,1.15,1.56.19.21.42.43.73.67-.02-.04-.05-.08-.07-.12-1.67-2.87-1.99-6.78-1.47-9.77Z"/>
      <path class="cls-1" d="M63.62,7.23s-.04-.04-.06-.06c-.03-.03-.05-.05-.08-.08-3.1-3.08-6.93-4.85-10.79-4.98-5.06-.16-10.41,2.43-13.99,6.76-2.06,2.5-3.3,5.36-3.62,8.23-1.7-.15-3.98-.15-6.37.4-2.01.47-6.72,1.57-10.25,6.1-3.99,5.11-4.23,12.09-4,15.94-5.2,1.81-10.98,7.03-12.35,14.95-.65,3.76-.41,9.08,1.93,13.38h0c.97,6.04,2.55,11.2,4.66,15.34.49.95,1,1.87,1.53,2.73.02.03.03.05.05.08,1.39,1.18,3.08,1.83,4.83,1.83.29,0,.58-.02.87-.05,6.55-.81,18.43-2.56,23.13-3.75,7.66-1.94,15.23-4.81,22.48-8.52,3.88-1.99,6.38-6.48,6.38-11.44V21.26c0-5.23-1.57-10.24-4.37-14.03ZM40.15,10.44c2.6-3.16,6.61-5.15,10.3-5.15.1,0,.21,0,.32,0,2.32.07,4.65.98,6.69,2.57-.1.26-.21.51-.32.76.73.37,1.44.82,2.12,1.35-2.36,5.81-4.94,9.54-6.22,10.71l-.13.12c-.74.67-2.27,2.06-3.24,4.57-.59,1.53-.71,2.84-.75,3.76-1.59-.22-5.07-1.91-7.35-5.24-.86-.81-1.67-1.79-2.33-2.94-.77-1.34-1.42-2.58-1.51-4.18-.11-2.06.75-4.31,2.42-6.33ZM35.69,30.24c.56-1.31.89-2.86,1.09-4.42,2.96,3.86,7.19,6.17,10.1,6.45.42.04.8.04,1.15,0,.32.64.7,1.24,1.13,1.79.08.1.17.22.28.34.14,0,.27-.01.4-.02.21.42.44.82.7,1.2h0c.2.19.42.36.65.53-.03.07-.07.14-.1.22.42.52,1.06,1.29,1.91,1.9-.81,1.75-1.83,3.73-2.67,5.15-2.35,3.95-5.26,6.75-7.05,8.26-.39-.3-.61-.49-.61-.5-.87-.8-1.48-1.57-1.92-2.13-.09-.11-.19-.23-.28-.36-.66-.66-1.16-1.28-1.53-1.75-.86-1.09-2.15-2.74-3.02-5.15-.04-.11-.1-.26-.19-.44-.23-.52-.71-1.6-.71-3.8,0-3.58.44-6.65.66-7.27ZM46.64,59.17c.57.18,1.19.28,1.87.3-1.36,2.54-3.02,4.76-4.98,6.63-1.07,1.02-2.23,1.94-3.46,2.73-.61-.28-1.25-.49-1.93-.63-.07-.02-.14-.04-.2-.05-.72-.14-1.46-.2-2.2-.2-1.51-.79-2.81-1.98-4.04-3.72-1.83-1.72-3.39-4.35-5.02-8.32-.1-.24-.2-.48-.29-.72.26.02.52.03.78.03.79,0,1.57-.07,2.34-.21,2.66-.48,5.11-2.09,6.88-3.58.45.53,1,1.14,1.69,1.77.12.11,2.98,2.71,6.75,3.87.57.18,1.19.28,1.87.3-.28.53-.58,1.04-.89,1.54.27.1.54.2.82.28ZM19.99,25.07c2.54-3.26,6.09-4.09,7.8-4.48,1.66-.39,3.4-.44,4.9-.34-.02.31-.04.61-.05.91-.02.37-.05.76-.07,1.16.67-.02,1.32,0,1.93.04-.02.31-.04.61-.05.91-.12,2.14-.28,5.08-.98,6.71-.75,1.75-1.14,6.17-1.14,9.63s.89,5.5,1.23,6.25l.04.09c.49,1.35,1.08,2.52,1.67,3.52-1.27,1.02-2.95,2.11-4.64,2.41-1.41.25-2.82.19-4.21-.2-.24-.65-.54-1.28-.88-1.9-.31-.05-.62-.12-.93-.21-1.09-2.95-3.35-5.6-5.21-7.81-.72-.85-1.68-1.99-2-2.54,0-.08-.02-.16-.05-.24,0,.02,0,.03,0,.04,0-.05-.02-.11-.03-.16,0,0,0-.01,0-.02-.16-1.29-1.01-9.09,2.66-13.8ZM7.35,64.77c-.44-.47-.82-1-1.15-1.56-1.67-2.87-1.99-6.78-1.47-9.77,1.05-6.05,5.75-9.67,9.14-10.9.43.68,1,1.38,1.66,2.17.05-.02.1-.04.15-.06.57.89,1.37,1.83,2.31,2.95,1.7,2.01,4.02,4.75,4.49,6.9.43,2.04,1.18,3.99,1.93,5.81,1.51,3.68,3.07,6.48,4.8,8.59-.08.02-.16.04-.24.05-4.32.94-9.23,2.01-14.97.44-3-.82-4.17-1.77-4.85-2.5-.41-.44-.77-.92-1.08-1.45-.3-.24-.53-.46-.73-.67ZM39.97,81.02c-4.34,1.1-15.94,2.84-22.65,3.67-1.33.17-2.63-.52-3.39-1.77-.15-.25-.3-.5-.45-.76-.53-.31-1-.77-1.35-1.35-.46-.76-.91-1.56-1.34-2.4-1.05-2.05-1.95-4.41-2.69-7.07.85.39,1.86.76,3.09,1.09,2.49.68,4.83.93,7.03.93,3.68,0,6.95-.71,9.78-1.33,2.89-.63,5.39-1.18,7.4-.78.78.15,1.46.43,2.08.87,1.18.83,3.78,1.89,5.13,2.28,1.58.46,3.11.32,4.46.18.55-.05,1.06-.11,1.51-.11.98,0,1.66.13,2.13.36-1.72.69-3.46,1.32-5.2,1.91,1.19.16,2.33.05,3.37-.05.55-.05,1.06-.11,1.51-.11.98,0,1.66.13,2.13.36-4.13,1.64-8.32,3.01-12.54,4.07ZM57.17,74.96c-.47-.92-1.08-1.61-1.76-2.13-.02,0-.03.02-.05.02-.02-.04-.04-.07-.05-.11-1.6-1.18-3.54-1.44-4.93-1.44-.64,0-1.27.06-1.88.12-1.1.11-2.13.21-2.99-.04-.11-.03-.22-.07-.34-.11.42-.35.82-.72,1.22-1.1.32-.3.62-.61.92-.92-.21.02-.42.04-.62.06-1.1.11-2.13.21-2.99-.04-.11-.03-.22-.07-.34-.11.42-.35.82-.72,1.22-1.1,3.31-3.17,5.94-7.17,7.79-11.89.09-.04.19-.08.29-.12,0,.05,0,.09-.01.13-.15,1.34-.36,3.34-.04,5.57.57-1.11,1.09-2.27,1.57-3.47.09-.04.19-.08.29-.12,0,.05,0,.09-.01.13-.2,1.85-.54,4.95.6,8.2.48,1.36,1.11,2.42,1.67,3.23.58.58,1.21,1.11,1.88,1.57-.14.07-.27.13-.41.2.68.72,1.42,1.36,2.21,1.92-1.08.54-2.16,1.05-3.25,1.55ZM65.27,66.21c0,1.3-.3,2.55-.84,3.62-1.1-.48-2.35-1.26-3.45-2.53-.3-.35-.67-.77-1.02-1.3-.27-.24-.53-.51-.79-.81-.54-.62-1.28-1.46-1.75-2.81-.69-1.96-.47-3.94-.3-5.53.08-.75.56-2.69.74-3.43l.06-.25s.02-.1.03-.15c1.82-1.3,3.68-2.92,5.51-4.83v3.89c.6-.55,1.21-1.15,1.81-1.78v15.91ZM65.27,42.84c-7.06,9.19-14.71,11.88-17.34,11.25.83-.81,1.72-1.76,2.64-2.84-1.95.76-3.51.95-4.44.73,1.89-1.85,4.15-4.43,6.09-7.69,1.34-2.24,2.95-5.53,3.88-7.84,1.27-.74,2.54-2.13,4.18-3.92.82-.9,1.75-1.91,2.88-3.09.1-.11.2-.21.31-.32v4.01c.46-.49.96-1.02,1.5-1.58.1-.11.2-.21.31-.32v11.6ZM65.27,24.31s-.05.04-.08.07c-1.07,1.04-2.16,2.13-3.22,3.23-1.17,1.23-2.13,2.26-2.97,3.18-1.37,1.49-2.93,3.17-3.3,3.12-.46-.09-1.11-.91-1.41-1.3-.23-.29-.41-.58-.56-.87-.44-.22-.98-.9-1.25-1.24-.47-.6-.76-1.24-.94-1.78.05-.36.05-.71.06-1.04.02-.7.04-1.37.37-2.25.51-1.32,1.37-2.09,1.88-2.56l.16-.14c1.81-1.65,4.46-5.57,6.85-11.03.56.91,1.04,1.9,1.43,2.95.13-.27.25-.55.37-.83,1.67,2.69,2.59,6.06,2.59,9.58v.93Z"/>
      <path class="cls-3" d="M126.92,39.04c0-.05.02-.11.03-.16,0,.04-.02.07-.02.12,0,.02,0,.03,0,.04Z"/>
      <path class="cls-3" d="M126.92,39.04c0-.05.02-.11.03-.16,0,.04-.02.07-.02.12,0,.02,0,.03,0,.04Z"/>
      <path class="cls-3" d="M141.35,55.55c-.56-3.26-2.19-5.81-4.09-7.66,1.08,1.54,1.91,3.39,2.29,5.55.51,2.99.2,6.9-1.47,9.77-.33.57-.71,1.09-1.15,1.56-.69.73-1.86,1.68-4.85,2.5-4.58,1.25-8.63.82-12.27.12-.37.54-.74,1.04-1.13,1.5.08.02.16.04.24.05,4.32.94,9.23,2.01,14.97.44,3-.82,4.17-1.77,4.85-2.5.44-.47.82-1,1.15-1.56,1.67-2.87,1.99-6.78,1.47-9.77ZM133.47,38.23c0,.48-.03.92-.05,1.33,2.37.82,4.86,2.36,6.99,4.53-1.96-2.65-4.45-4.63-6.94-5.86ZM133.5,78.4c-.43.83-.88,1.64-1.34,2.4-.76,1.26-2.06,1.94-3.39,1.77-6.71-.83-18.31-2.56-22.65-3.67-2.56-.64-5.1-1.4-7.62-2.26-.35-.04-.68-.06-.98-.06-.98,0-1.66.13-2.13.36,4.13,1.64,8.32,3.01,12.54,4.07,4.34,1.1,15.94,2.84,22.65,3.67,1.33.17,2.63-.52,3.39-1.77.46-.76.91-1.56,1.34-2.4,1.05-2.05,1.95-4.41,2.69-7.07-.78.35-1.7.7-2.8,1-.51,1.42-1.07,2.74-1.7,3.95ZM128.75,40.99s0-.01,0-.02c.16-1.29,1.01-9.09-2.66-13.8-.41-.53-.84-.99-1.3-1.39,3.08,4.74,2.31,11.85,2.15,13.08,0,0,0,.01,0,.02,0,.05-.02.11-.03.16,0-.01,0-.02,0-.04-.02.08-.04.16-.05.24-.32.55-1.28,1.68-2,2.54-1.86,2.2-4.12,4.86-5.21,7.81-1.39.39-2.8.45-4.21.2-.84-.15-1.68-.5-2.47-.93-.12.22-.24.43-.36.63,1.27,1.02,2.95,2.11,4.64,2.41,1.41.25,2.82.19,4.21-.2,1.09-2.95,3.35-5.6,5.21-7.81.72-.85,1.68-1.99,2-2.54,0-.08.02-.16.05-.24,0,.02,0,.03,0,.04,0-.05.02-.11.03-.16ZM119.17,17.52c1.75.41,5.56,1.3,8.85,4.53-.13-.18-.26-.36-.4-.54-3.53-4.53-8.24-5.63-10.25-6.1-1.79-.42-3.52-.52-4.99-.48.2.72.34,1.46.42,2.19,1.7-.15,3.98-.15,6.37.4ZM110.35,65.83c-.74,0-1.48.06-2.2.2-.07.01-.14.03-.2.05-.68.14-1.32.35-1.93.63-1.23-.79-2.39-1.7-3.46-2.73-.26-.25-.51-.51-.77-.77.79,1.04,1.65,2,2.57,2.88,1.07,1.02,2.23,1.94,3.46,2.73.61-.28,1.25-.49,1.93-.63.07-.02.14-.04.2-.05.72-.14,1.46-.2,2.2-.2,2.87-1.51,4.99-4.43,7.25-9.93.1-.24.2-.48.29-.72-.26.02-.52.03-.78.03-.63,0-1.25-.05-1.87-.14-2.06,4.68-4.06,7.26-6.7,8.65ZM108.59,30.24c.23.62.66,3.69.66,7.27,0,2.2-.48,3.28-.71,3.8-.08.18-.14.33-.19.44-.87,2.41-2.16,4.06-3.02,5.15-.44.56-1.05,1.33-1.92,2.13,0,0-.23.2-.61.5-.82-.69-1.86-1.64-2.99-2.86,1.77,2.26,3.55,3.93,4.79,4.98.39-.3.61-.49.61-.5.87-.8,1.48-1.57,1.92-2.13.86-1.09,2.15-2.74,3.02-5.15.04-.11.1-.26.19-.44.23-.52.71-1.6.71-3.8,0-3.58-.44-6.65-.66-7.27-.56-1.31-.89-2.86-1.09-4.42-.35.45-.71.88-1.09,1.29.11.35.23.69.37,1.01ZM104.8,11.34c1.23,1.77,1.84,3.67,1.75,5.43-.09,1.61-.74,2.85-1.51,4.18-1.74,3.01-4.48,4.85-6.43,5.65.26,1,.33,1.87.36,2.53,1.72-.24,5.63-2.19,7.87-6.06.77-1.34,1.42-2.58,1.51-4.18.11-2.06-.75-4.31-2.42-6.33-.35-.43-.73-.83-1.13-1.21ZM78.1,23.38c0-6.01,2.07-11.7,5.68-15.63.19-.2.37-.39.55-.57.03-.03.05-.05.08-.08,3.1-3.08,6.93-4.85,10.78-4.98,4.54-.15,9.3,1.92,12.82,5.47-.2-.27-.42-.55-.64-.82C103.8,2.44,98.45-.16,93.39,0c-3.86.13-7.68,1.89-10.78,4.98-.02.03-.05.05-.08.08-.18.18-.37.37-.55.57-3.61,3.93-5.68,9.63-5.68,15.63v42.84c0,3.9,1.55,7.51,4.09,9.84-1.45-2.16-2.28-4.86-2.28-7.73V23.38ZM99.4,71.43c1.1.11,2.13.21,2.99-.04.11-.03.22-.07.34-.11-.42-.35-.82-.72-1.22-1.1-.31-.3-.61-.6-.91-.91,0,0,0,0-.01,0-.86.25-1.89.15-2.99.04-.61-.06-1.25-.12-1.88-.12-2.01,0-5.19.54-6.79,3.65-.15-.07-.3-.14-.44-.21-.33.27-.66.53-1,.77,1.08.54,2.16,1.05,3.25,1.55,1.6-3.12,4.78-3.65,6.79-3.65.64,0,1.27.06,1.88.12ZM99.95,54.1c-.62-.61-1.29-1.3-1.97-2.08-2.45.43-8.59-1.69-14.76-8.41,6.88,8.57,14.18,11.1,16.73,10.49ZM93.43,58.3c.05.45.1.97.14,1.54,1.39,2.65,3.06,5.02,4.99,7.09-1.96-2.52-3.59-5.41-4.86-8.64-.09-.04-.19-.08-.29-.12,0,.05,0,.09.01.13ZM89.98,38.57c-.44-.26-.88-.59-1.34-.99.94,2.17,2.28,4.83,3.41,6.72,1.45,2.45,3.1,4.51,4.62,6.17-.96-1.2-1.92-2.56-2.81-4.06-1.34-2.24-2.95-5.53-3.88-7.84ZM93.24,18.75c.64.9,1.2,1.55,1.61,1.93l.13.12c.09.08.19.17.3.27-.75-1.14-1.55-1.88-2.05-2.32ZM85.92,27.61c1.17,1.23,2.13,2.26,2.97,3.18,1.37,1.49,2.93,3.17,3.3,3.12.46-.09,1.11-.91,1.41-1.3.47-.6.76-1.24.94-1.78-.05-.36-.05-.71-.06-1.04-.02-.7-.04-1.37-.37-2.25-.51-1.32-1.37-2.09-1.88-2.56l-.16-.14-.07-.06c.11.2.21.42.3.66.34.88.36,1.55.37,2.25,0,.33.01.68.06,1.04-.18.54-.47,1.18-.94,1.78-.31.39-.95,1.21-1.41,1.3-.37.06-1.93-1.62-3.3-3.12-.84-.92-1.79-1.95-2.97-3.18-.5-.51-1-1.02-1.5-1.53v.34s.05.04.08.07c1.07,1.04,2.16,2.13,3.22,3.23ZM90.1,22.57c-1.52-2.05-3.27-5.05-4.89-8.77-.16.25-.31.51-.45.78,1.93,3.82,3.88,6.6,5.34,7.99ZM88.95,58.96c-.08-.75-.56-2.69-.74-3.43l-.06-.25s-.02-.1-.03-.15c-.53-.37-1.06-.78-1.59-1.21.21.9.55,2.31.61,2.93.17,1.59.39,3.57-.3,5.53-.47,1.35-1.21,2.2-1.75,2.81-.77.89-1.62,1.54-2.43,2,.11.94.38,1.84.78,2.64,1.1-.48,2.35-1.26,3.45-2.53.54-.62,1.28-1.46,1.75-2.81.69-1.96.47-3.94.3-5.53Z"/>
      <path class="cls-2" d="M128.75,40.99c0,.05-.02.11-.03.16,0-.01,0-.02,0-.04,0-.04.01-.08.02-.12Z"/>
      <path class="cls-2" d="M128.73,41.11s0,.03,0,.04c0-.05.02-.11.03-.16,0,.04-.02.07-.02.12Z"/>
      <path class="cls-2" d="M145.77,54.51c-.74-4.31-2.8-7.83-5.36-10.42,1.69,2.29,2.99,5.08,3.55,8.31.65,3.76.41,9.08-1.93,13.38h0c-.97,6.04-2.55,11.2-4.66,15.34-.49.95-1,1.87-1.53,2.73-1.54,2.54-4.04,4.02-6.69,4.02-.29,0-.58-.02-.87-.05-6.55-.81-18.43-2.56-23.13-3.75-7.66-1.94-15.23-4.81-22.48-8.52-.83-.43-1.6-.97-2.29-1.6,1.07,1.58,2.46,2.87,4.1,3.71,7.25,3.71,14.82,6.58,22.48,8.52,4.7,1.19,16.58,2.94,23.13,3.75.29.04.58.05.87.05,2.64,0,5.15-1.48,6.69-4.02.52-.86,1.04-1.79,1.53-2.73,2.12-4.15,3.69-9.3,4.66-15.34h0c2.34-4.31,2.58-9.63,1.93-13.39ZM128.09,45.49c-1.7,2.01-4.02,4.75-4.49,6.9-.43,2.04-1.18,3.99-1.93,5.81-1.51,3.68-3.07,6.48-4.8,8.59.08.02.16.04.24.05.87.19,1.77.39,2.7.56,1.3-1.89,2.5-4.22,3.67-7.09.74-1.82,1.49-3.77,1.93-5.81.47-2.14,2.79-4.89,4.49-6.9.94-1.11,1.74-2.05,2.31-2.95,1.56.57,3.41,1.65,5.05,3.24-1.95-2.78-4.67-4.56-6.85-5.36-.57.89-1.37,1.83-2.31,2.95ZM99.02,76.69c1.35.13,2.88.28,4.46-.18,1.35-.39,3.95-1.45,5.13-2.28.62-.44,1.3-.72,2.08-.87,2.01-.4,4.51.15,7.4.78,2.84.62,6.1,1.33,9.78,1.33,2.2,0,4.55-.25,7.03-.93.1-.03.2-.05.29-.08.36-.99.69-2.03.99-3.12-.85.39-1.86.76-3.09,1.09-2.49.68-4.83.93-7.03.93-3.68,0-6.95-.71-9.78-1.33-2.89-.63-5.39-1.18-7.4-.78-.78.15-1.46.43-2.08.87-1.18.83-3.78,1.89-5.13,2.28-1.58.46-3.11.32-4.46.18-.55-.05-1.06-.11-1.51-.11-.98,0-1.66.13-2.13.36,1.63.65,3.27,1.25,4.92,1.81.17.01.35.03.53.05ZM131.61,37.45c.61.21,1.24.48,1.86.78.09-3.99-.49-10.05-4.05-14.61-.45-.58-.92-1.1-1.4-1.57,3.6,5.05,3.82,11.69,3.59,15.41ZM111.64,21.16c.12,2.14.28,5.08.98,6.71.75,1.75,1.14,6.17,1.14,9.63s-.89,5.5-1.23,6.25l-.04.09c-.49,1.35-1.08,2.52-1.67,3.52.64.51,1.37,1.04,2.17,1.48.47-.85.92-1.81,1.31-2.88l.04-.09c.34-.75,1.23-2.75,1.23-6.25s-.39-7.88-1.14-9.63c-.7-1.64-.86-4.57-.98-6.71-.02-.3-.04-.61-.05-.91,1.5-.11,3.24-.05,4.9.34,1.43.33,4.16.97,6.51,3.09-.16-.25-.33-.49-.51-.72-2.54-3.26-6.09-4.09-7.8-4.48-1.66-.39-3.4-.44-4.9-.34.02.31.04.61.05.91ZM108,55.3c.69-.63,1.25-1.24,1.69-1.77,1.77,1.49,4.22,3.1,6.88,3.58.15.03.31.05.47.07.18-.41.37-.84.55-1.28.1-.24.2-.48.29-.72-.26.02-.52.03-.78.03-.79,0-1.57-.07-2.34-.21-2.66-.48-5.11-2.09-6.88-3.58-.45.53-1,1.14-1.69,1.77-.12.11-2.98,2.71-6.75,3.87-.57.18-1.19.28-1.87.3,1.18,2.2,2.59,4.16,4.21,5.86-.89-1.16-1.69-2.4-2.41-3.74.68-.02,1.3-.12,1.87-.3,3.77-1.16,6.64-3.76,6.75-3.87ZM112.38,14.92c-.58-2.12-1.67-4.18-3.2-6.04-.37-.45-.76-.88-1.17-1.29,1.68,2.3,2.7,4.85,2.98,7.41.43-.04.89-.06,1.39-.08ZM96.24,32.28c-.32.64-.7,1.24-1.13,1.79-.41.52-1.09,1.38-2.03,2.05.81,1.75,1.83,3.73,2.67,5.15,1.28,2.15,2.72,3.96,4.06,5.39-.77-.98-1.54-2.08-2.25-3.28-.84-1.42-1.86-3.4-2.67-5.15.94-.67,1.62-1.54,2.03-2.05.43-.55.81-1.15,1.13-1.79.35.03.73.04,1.15,0,2.56-.25,6.17-2.09,9.01-5.17-.34-1.07-.56-2.23-.72-3.4-2.96,3.86-7.19,6.17-10.1,6.45-.42.04-.8.04-1.15,0ZM93.04,18.57l.13.12s.04.04.06.06c-1.32-1.88-3.02-4.85-4.61-8.77,2.05-1.59,4.37-2.5,6.69-2.57.1,0,.21,0,.32,0,3.18,0,6.61,1.49,9.16,3.94-.2-.31-.43-.6-.67-.9-2.6-3.16-6.61-5.15-10.3-5.15-.1,0-.21,0-.32,0-2.32.07-4.65.98-6.69,2.57,2.36,5.81,4.94,9.54,6.22,10.71ZM98.57,66.93c.64.82,1.31,1.6,2.02,2.34.1-.03.21-.06.33-.1-.42-.35-.82-.72-1.22-1.1-.38-.37-.76-.75-1.13-1.14ZM97.16,27.02c.39-.05.88-.19,1.44-.42-.1-.39-.23-.8-.39-1.23-.85-2.21-2.14-3.55-2.93-4.3.41.61.8,1.34,1.13,2.19.59,1.53.71,2.84.75,3.76ZM97.98,52.02c.06,0,.11-.02.17-.03-.47-.45-.95-.95-1.45-1.49.42.54.86,1.05,1.28,1.53ZM88.26,68.97c-.78.89-1.65,1.67-2.59,2.33.93.46,1.86.91,2.81,1.34.56-.48,1.1-1,1.59-1.56.68-.78,1.94-2.22,2.77-4.58.86-2.47.88-4.85.74-6.66-.61-1.17-1.17-2.39-1.67-3.67-.09-.04-.19-.08-.29-.12,0,.05,0,.09.01.13.2,1.85.54,4.95-.6,8.2-.83,2.36-2.09,3.8-2.77,4.58ZM91.99,24.77c-.5-.93-1.16-1.52-1.58-1.91l-.16-.14s-.1-.1-.15-.15c.69.93,1.33,1.67,1.89,2.2ZM83.19,43.57c-.19-.23-.38-.48-.57-.72v-11.6c.1.11.2.21.31.32,1.13,1.18,2.06,2.19,2.88,3.09,1.07,1.17,1.98,2.17,2.84,2.93-.17-.39-.33-.77-.47-1.12-1.27-.74-2.54-2.13-4.18-3.92-.82-.9-1.75-1.91-2.88-3.09-.1-.11-.2-.21-.31-.32v11.6c.79,1.02,1.58,1.97,2.38,2.84ZM82.67,67.2c-.04-.32-.05-.65-.05-.98v-15.91c1.3,1.36,2.61,2.57,3.92,3.62-.05-.2-.09-.37-.12-.5l-.06-.25s-.02-.1-.03-.15c-1.82-1.3-3.68-2.92-5.51-4.83v15.91c0,1.3.3,2.55.84,3.62.33-.15.67-.32,1.02-.53ZM82.61,23.97v-.59c0-3.19.76-6.25,2.14-8.8-.46-.91-.91-1.87-1.36-2.89-1.67,2.69-2.59,6.06-2.59,9.58v.93s.05.04.08.07c.57.55,1.15,1.13,1.72,1.71Z"/>
      <path class="cls-1" d="M143.97,52.39c-.56-3.23-1.86-6.02-3.55-8.31-2.14-2.17-4.62-3.7-6.99-4.53.02-.41.05-.86.05-1.33-.62-.31-1.25-.57-1.86-.78.23-3.72,0-10.36-3.59-15.41-3.29-3.23-7.1-4.11-8.85-4.53-2.39-.55-4.67-.55-6.37-.4-.08-.73-.22-1.47-.42-2.19-.49.02-.96.04-1.39.08-.28-2.56-1.3-5.12-2.98-7.41-3.52-3.54-8.28-5.61-12.82-5.47-3.86.13-7.68,1.89-10.78,4.98-.02.03-.05.05-.08.08-.18.18-.37.37-.55.57-3.61,3.93-5.68,9.63-5.68,15.63v42.84c0,2.87.84,5.57,2.28,7.73.7.63,1.46,1.17,2.29,1.6,7.25,3.71,14.82,6.58,22.48,8.52,4.7,1.19,16.58,2.94,23.13,3.75.29.04.58.05.87.05,2.64,0,5.15-1.48,6.69-4.02.52-.86,1.04-1.79,1.53-2.73,2.12-4.15,3.69-9.3,4.66-15.34h0c2.34-4.31,2.58-9.63,1.93-13.39ZM116.49,20.58c1.71.4,5.26,1.23,7.8,4.48.18.23.35.47.51.72.45.41.88.87,1.3,1.39,3.67,4.7,2.83,12.51,2.66,13.8,0,0,0,.01,0,.02,0,.05-.02.11-.03.16,0-.01,0-.02,0-.04-.02.08-.04.16-.05.24-.32.55-1.28,1.68-2,2.54-1.86,2.2-4.12,4.86-5.21,7.81-1.39.39-2.8.45-4.21.2-1.69-.31-3.37-1.39-4.64-2.41.12-.21.24-.42.36-.63-.79-.44-1.53-.97-2.17-1.48.59-.99,1.18-2.17,1.67-3.52l.04-.09c.34-.75,1.23-2.75,1.23-6.25s-.39-7.88-1.14-9.63c-.7-1.64-.86-4.57-.98-6.71-.02-.3-.04-.61-.05-.91,1.5-.11,3.24-.05,4.9.34ZM118.92,57.32c.26,0,.52,0,.78-.03-.09.24-.19.48-.29.72-2.26,5.5-4.38,8.42-7.25,9.93-.74,0-1.48.06-2.2.2-.07.01-.14.03-.2.05-.68.14-1.32.35-1.93.63-1.23-.79-2.39-1.7-3.46-2.73-.93-.88-1.78-1.85-2.57-2.88-1.63-1.7-3.03-3.65-4.21-5.86.68-.02,1.3-.12,1.87-.3,3.77-1.16,6.64-3.76,6.75-3.87.69-.63,1.25-1.24,1.69-1.77,1.77,1.49,4.22,3.1,6.88,3.58.77.14,1.55.21,2.34.21.26,0,.52,0,.78-.03-.09.24-.19.48-.29.72-.18.44-.37.87-.55,1.28.62.09,1.24.14,1.87.14ZM109.3,27.94c.2,1.55.53,3.11,1.09,4.42.23.62.66,3.69.66,7.27,0,2.2-.48,3.28-.71,3.8-.08.18-.14.33-.19.44-.87,2.41-2.16,4.06-3.02,5.15-.44.56-1.05,1.33-1.92,2.13,0,0-.23.2-.61.5-1.25-1.05-3.03-2.72-4.79-4.98-1.34-1.44-2.78-3.24-4.06-5.39-.84-1.42-1.86-3.4-2.67-5.15.94-.67,1.62-1.54,2.03-2.05.43-.55.81-1.15,1.13-1.79.35.03.73.04,1.15,0,2.91-.29,7.14-2.6,10.1-6.45.15,1.17.38,2.33.72,3.4.38-.41.74-.83,1.09-1.29ZM93.51,5.29c.1,0,.21,0,.32,0,3.68,0,7.69,2,10.3,5.15.24.3.47.59.67.9.4.38.78.79,1.13,1.21,1.67,2.02,2.53,4.27,2.42,6.33-.09,1.61-.74,2.85-1.51,4.18-2.24,3.87-6.15,5.83-7.87,6.06-.03-.66-.1-1.53-.36-2.53-.56.23-1.06.36-1.44.42-.04-.92-.16-2.23-.75-3.76-.33-.85-.72-1.58-1.13-2.19-.11-.1-.21-.19-.3-.27l-.13-.12c-.42-.38-.97-1.03-1.61-1.93-.02-.03-.05-.04-.06-.06l-.13-.12c-1.28-1.17-3.86-4.89-6.22-10.71,2.05-1.59,4.37-2.5,6.69-2.57ZM80.81,21.26c0-3.52.93-6.89,2.59-9.58.45,1.02.9,1.99,1.36,2.89.14-.27.29-.53.45-.78,1.63,3.72,3.37,6.72,4.89,8.77.05.05.1.1.15.15l.16.14c.42.39,1.08.98,1.58,1.91l.07.06.16.14c.51.47,1.38,1.25,1.88,2.56.34.88.36,1.55.37,2.25,0,.33.01.68.06,1.04-.18.54-.47,1.18-.94,1.78-.31.39-.95,1.21-1.41,1.3-.37.06-1.93-1.62-3.3-3.12-.84-.92-1.79-1.95-2.97-3.18-1.06-1.1-2.15-2.19-3.22-3.23-.03-.03-.05-.05-.08-.07v-.34c-.57-.58-1.15-1.15-1.72-1.71-.03-.03-.05-.05-.08-.07v-.93ZM80.81,29.13c.1.11.2.21.31.32,1.13,1.18,2.06,2.19,2.88,3.09,1.64,1.79,2.9,3.17,4.18,3.92.14.35.3.73.47,1.12.46.4.89.73,1.34.99.93,2.31,2.54,5.6,3.88,7.84.89,1.49,1.85,2.85,2.81,4.06,0,.01.01.02.03.03.5.54.98,1.04,1.45,1.49-.05.01-.11.03-.17.03.68.78,1.35,1.47,1.97,2.08-2.55.61-9.85-1.92-16.73-10.49-.01-.01-.02-.03-.03-.04-.79-.87-1.59-1.81-2.38-2.84v-11.6ZM82.67,67.2c-.35.21-.7.38-1.02.53-.54-1.08-.84-2.32-.84-3.62v-15.91c1.83,1.92,3.69,3.53,5.51,4.83,0,.05.02.1.03.15l.06.25c.03.13.07.31.12.5.53.43,1.06.84,1.59,1.21,0,.05.02.1.03.15l.06.25c.18.73.65,2.68.74,3.43.17,1.59.39,3.57-.3,5.53-.47,1.35-1.21,2.2-1.75,2.81-1.11,1.27-2.36,2.05-3.45,2.53-.4-.8-.67-1.7-.78-2.64ZM90.72,74.96c-1.09-.5-2.17-1.01-3.25-1.55.34-.24.68-.5,1-.77-.94-.43-1.87-.88-2.81-1.34.94-.66,1.81-1.44,2.59-2.33.68-.78,1.94-2.22,2.77-4.58,1.14-3.25.8-6.35.6-8.2,0-.04,0-.08-.01-.13.1.04.2.08.29.12.5,1.27,1.06,2.5,1.67,3.67-.04-.58-.09-1.09-.14-1.54,0-.04,0-.08-.01-.13.1.04.2.08.29.12,1.26,3.23,2.89,6.12,4.86,8.64.37.39.74.77,1.13,1.14.4.38.8.75,1.22,1.1-.11.04-.22.07-.33.1.3.31.6.62.91.91.4.38.8.75,1.22,1.1-.12.04-.23.07-.34.11-.86.25-1.89.15-2.99.04-.61-.06-1.25-.12-1.88-.12-2.01,0-5.19.54-6.79,3.65ZM135.3,80.51c-.43.83-.88,1.64-1.34,2.4-.76,1.26-2.06,1.94-3.39,1.77-6.71-.83-18.31-2.56-22.65-3.67-4.23-1.07-8.41-2.43-12.54-4.07.47-.23,1.15-.36,2.13-.36.3,0,.63.02.98.06-1.65-.56-3.29-1.16-4.92-1.81.47-.23,1.15-.36,2.13-.36.45,0,.96.05,1.51.11,1.35.13,2.88.28,4.46-.18,1.35-.39,3.95-1.45,5.13-2.28.62-.44,1.3-.72,2.08-.87,2.01-.4,4.51.15,7.4.78,2.84.62,6.1,1.33,9.78,1.33,2.2,0,4.55-.25,7.03-.93,1.23-.33,2.24-.7,3.09-1.09-.3,1.09-.63,2.13-.99,3.12,1.1-.31,2.02-.65,2.8-1-.74,2.66-1.64,5.02-2.69,7.07ZM139.88,65.32c-.33.57-.71,1.09-1.15,1.56-.69.73-1.86,1.68-4.85,2.5-5.74,1.56-10.64.5-14.97-.44-.08-.02-.16-.04-.24-.05.38-.46.76-.96,1.13-1.5-.93-.17-1.82-.37-2.7-.56-.08-.02-.16-.04-.24-.05,1.74-2.11,3.29-4.91,4.8-8.59.74-1.82,1.49-3.77,1.93-5.81.47-2.14,2.79-4.89,4.49-6.9.94-1.11,1.74-2.05,2.31-2.95,2.18.79,4.91,2.57,6.85,5.36,1.91,1.85,3.53,4.4,4.09,7.66.51,2.99.2,6.9-1.47,9.77Z"/>
    </g>
  </g>
</svg>