<?xml version="1.0" encoding="UTF-8"?>
<svg id="Layer_2" data-name="Layer 2" xmlns="http://www.w3.org/2000/svg" viewBox="0 0 95.67 108.12">
  <defs>
    <style>
      .cls-1 {
        fill: #de315f;
      }

      .cls-1, .cls-2, .cls-3, .cls-4, .cls-5 {
        stroke-width: 0px;
      }

      .cls-2 {
        fill: #202123;
      }

      .cls-3 {
        fill: #6fefdb;
      }

      .cls-4 {
        fill: #fff;
      }

      .cls-5 {
        fill: #05f3db;
      }
    </style>
  </defs>
  <g id="Layer_6" data-name="Layer 6">
    <g>
      <polygon class="cls-4" points="95.67 34.01 95.67 83.42 52.53 108.12 9.38 83.42 9.38 79.48 0 74.11 0 24.7 43.15 0 86.29 24.7 86.29 28.64 95.67 34.01"/>
      <g>
        <polygon class="cls-1" points="95.67 34.01 95.67 83.42 52.53 108.12 9.38 83.42 9.38 79.48 43.15 98.82 86.29 74.11 86.29 28.64 95.67 34.01"/>
        <g>
          <path class="cls-2" d="M52.53,9.3L9.38,34.01v45.47l33.77,19.34,43.14-24.71V28.64L52.53,9.3ZM67.54,67.31l-15.01,8.59-15-8.59v-3.93l-9.39-5.38v-17.19l15.01-8.59,15.01,8.59v3.94l9.38,5.37v17.19Z"/>
          <polygon class="cls-1" points="58.16 40.81 58.16 44.75 52.53 41.52 37.53 50.12 37.53 63.38 28.14 58 28.14 40.81 43.15 32.22 58.16 40.81"/>
          <polygon class="cls-5" points="67.54 50.12 67.54 67.31 52.53 75.9 37.53 67.31 37.53 63.38 43.15 66.6 58.16 58 58.16 44.75 67.54 50.12"/>
          <polygon class="cls-3" points="86.29 24.7 86.29 28.64 52.53 9.3 9.38 34.01 9.38 79.48 0 74.11 0 24.7 43.15 0 86.29 24.7"/>
        </g>
      </g>
    </g>
  </g>
</svg>