<?xml version="1.0" encoding="UTF-8"?>
<svg id="Layer_2" data-name="Layer 2" xmlns="http://www.w3.org/2000/svg" viewBox="0 0 100 78.87">
  <defs>
    <style>
      .cls-1 {
        fill: #fff;
      }

      .cls-1, .cls-2, .cls-3 {
        stroke-width: 0px;
      }

      .cls-2 {
        fill: #f2055d;
      }

      .cls-3 {
        fill: #05f3db;
      }
    </style>
  </defs>
  <g id="Layer_5" data-name="Layer 5">
    <g>
      <g>
        <path class="cls-3" d="M40.77,24.49c-.16.02-.33.03-.5.03h-.02c-.18,0-.35-.01-.52-.03h1.04Z"/>
        <g>
          <path class="cls-3" d="M17.81,78.87h-3.04c-2.52,0-4.55-2.04-4.55-4.55v-18.55h3.04v18.55c0,2.52,2.04,4.55,4.55,4.55Z"/>
          <path class="cls-3" d="M32.49,62c-.48.17-.99.26-1.52.26-2.52,0-4.55-2.04-4.55-4.55v-1.94h3.04v1.94c0,1.98,1.27,3.67,3.04,4.29Z"/>
          <path class="cls-3" d="M30.97,40.15c.53,0,1.04.09,1.52.26-1.77.62-3.04,2.31-3.04,4.29v1.94h-3.04v-1.94c0-2.52,2.04-4.55,4.55-4.55Z"/>
          <path class="cls-3" d="M38.68,9.15l.03,6.23h-1.96c-2.51,0-4.55,2.04-4.55,4.55s2.04,4.55,4.55,4.55h-3.04c-2.51,0-4.55-2.04-4.55-4.55s2.04-4.55,4.55-4.55h1.96l-.03-6.2,3.04-.03Z"/>
          <path class="cls-3" d="M40.18,0c.16,0,.31,0,.46.02L7.55.3c-2.5.02-4.52,2.05-4.52,4.55v46.35c0,2.52,2.04,4.55,4.55,4.55h-3.04c-2.52,0-4.55-2.04-4.55-4.55V4.86C0,2.36,2.02.32,4.52.3L40.1,0h.01s.03,0,.05,0h.02Z"/>
          <path class="cls-3" d="M59.36.02c-2.29.23-4.08,2.16-4.09,4.51l-.05,10.85h-3.04l.05-10.85c.01-2.51,2.05-4.53,4.55-4.53h.02s.03,0,.05,0h.01l2.49.02Z"/>
          <path class="cls-3" d="M59.85,74.31c0,2.52,2.04,4.55,4.55,4.55h-3.04c-2.52,0-4.55-2.04-4.55-4.55s2.04-4.55,4.55-4.55h3.04c-2.52,0-4.55,2.04-4.55,4.55Z"/>
          <path class="cls-3" d="M64.48,44.71v13c0,1.98,1.27,3.67,3.04,4.29-.47.17-.99.26-1.52.26-2.52,0-4.55-2.04-4.55-4.55v-13c0-2.52,2.04-4.55,4.55-4.55.53,0,1.04.09,1.52.26-1.77.62-3.04,2.31-3.04,4.29Z"/>
          <rect class="cls-3" x="77.63" y="55.76" width="3.04" height="14"/>
          <polygon class="cls-3" points="90.89 9.37 90.89 46.65 87.86 46.65 87.86 9.37 64.35 9.17 64.35 9.15 90.89 9.37"/>
        </g>
        <path class="cls-3" d="M57.23,24.49c-.17.02-.35.03-.52.03h-.02c-.17,0-.33-.01-.5-.03h1.04Z"/>
      </g>
      <g>
        <path class="cls-2" d="M43.81,24.49c-.16.02-.33.03-.5.03h-.02c-.18,0-.35-.01-.52-.03h1.04Z"/>
        <g>
          <path class="cls-1" d="M96.96,4.86v46.35c0,2.52-2.04,4.55-4.55,4.55h-5.67v18.55c0,2.52-2.04,4.55-4.55,4.55h-17.79c-2.52,0-4.55-2.04-4.55-4.55s2.04-4.55,4.55-4.55h16.27v-14h-10.12v1.94c0,1.98-1.27,3.67-3.04,4.29-1.77-.62-3.04-2.31-3.04-4.29v-13c0-1.98,1.27-3.67,3.04-4.29,1.77.62,3.04,2.31,3.04,4.29v1.94h20.34V9.37l-26.54-.23v.03l-3.04-.03-.03,6.23h1.96c2.52,0,4.55,2.04,4.55,4.55s-2.04,4.55-4.55,4.55h-26.49c-2.51,0-4.55-2.04-4.55-4.55s2.04-4.55,4.55-4.55h1.96l-.03-6.23-3.04.03v-.03l-26.54.23v37.28h20.34v-1.94c0-1.98,1.27-3.67,3.04-4.29,1.77.62,3.04,2.31,3.04,4.29v13c0,1.98-1.27,3.67-3.04,4.29-1.77-.62-3.04-2.31-3.04-4.29v-1.94h-10.12v14h16.27c2.52,0,4.55,2.04,4.55,4.55s-2.04,4.55-4.55,4.55h-17.79c-2.52,0-4.55-2.04-4.55-4.55v-18.55h-5.67c-2.52,0-4.55-2.04-4.55-4.55V4.86C3.04,2.36,5.05.32,7.55.3L40.64.02h0c2.29.23,4.08,2.16,4.09,4.51l.05,10.85h10.43l.05-10.85c.01-2.35,1.8-4.28,4.09-4.51h0l33.09.28c2.5.02,4.52,2.05,4.52,4.55Z"/>
          <rect class="cls-2" x="19.33" y="55.76" width="3.04" height="14"/>
          <polygon class="cls-2" points="35.65 9.17 12.14 9.37 12.14 46.65 9.11 46.65 9.11 9.37 35.65 9.15 35.65 9.17"/>
          <path class="cls-2" d="M34.01,62.26c-.53,0-1.04-.09-1.52-.26,1.77-.62,3.04-2.31,3.04-4.29v-13c0-1.98-1.27-3.67-3.04-4.29.48-.17.99-.26,1.52-.26,2.52,0,4.55,2.04,4.55,4.55v13c0,2.52-2.04,4.55-4.55,4.55Z"/>
          <path class="cls-2" d="M43.19,74.31c0,2.52-2.04,4.55-4.55,4.55h-3.04c2.52,0,4.55-2.04,4.55-4.55s-2.04-4.55-4.55-4.55h3.04c2.52,0,4.55,2.04,4.55,4.55Z"/>
          <path class="cls-2" d="M47.77,4.53l.05,10.85h-3.04l-.05-10.85c-.01-2.35-1.8-4.28-4.09-4.51l2.49-.02h.01s.03,0,.05,0h.02c2.5,0,4.54,2.02,4.55,4.53Z"/>
          <path class="cls-2" d="M66.28,24.49h-3.04c2.52,0,4.55-2.04,4.55-4.55s-2.04-4.55-4.55-4.55h-1.96l.03-6.23,3.04.03-.03,6.2h1.96c2.52,0,4.55,2.04,4.55,4.55s-2.04,4.55-4.55,4.55Z"/>
          <path class="cls-2" d="M73.58,44.71v1.94h-3.04v-1.94c0-1.98-1.27-3.67-3.04-4.29.47-.17.99-.26,1.52-.26,2.52,0,4.55,2.04,4.55,4.55Z"/>
          <path class="cls-2" d="M70.55,55.76h3.04v1.94c0,2.52-2.04,4.55-4.55,4.55-.53,0-1.04-.09-1.52-.26,1.77-.62,3.04-2.31,3.04-4.29v-1.94Z"/>
          <path class="cls-2" d="M86.74,55.76h3.04v18.55c0,2.52-2.04,4.55-4.55,4.55h-3.04c2.52,0,4.55-2.04,4.55-4.55v-18.55Z"/>
          <path class="cls-2" d="M100,4.86v46.35c0,2.52-2.04,4.55-4.55,4.55h-3.04c2.52,0,4.55-2.04,4.55-4.55V4.86c0-2.5-2.02-4.53-4.52-4.55L59.36.02c.15-.02.31-.02.46-.02h.02s.03,0,.05,0h.01l35.58.3c2.5.02,4.52,2.05,4.52,4.55Z"/>
        </g>
        <path class="cls-2" d="M60.27,24.49c-.17.02-.35.03-.52.03h-.02c-.17,0-.33-.01-.5-.03h1.04Z"/>
      </g>
    </g>
  </g>
</svg>