<?xml version="1.0" encoding="UTF-8"?>
<svg id="Layer_2" data-name="Layer 2" xmlns="http://www.w3.org/2000/svg" viewBox="0 0 100 81.34">
  <defs>
    <style>
      .cls-1 {
        fill: #0d0d0d;
        stroke-width: 0px;
      }
    </style>
  </defs>
  <g id="Layer_5" data-name="Layer 5">
    <g>
      <path class="cls-1" d="M42.05,25.25c-.17.02-.34.03-.51.03h-.02c-.18,0-.36-.01-.54-.03h1.08Z"/>
      <path class="cls-1" d="M100,5.01v47.8c0,2.59-2.1,4.7-4.7,4.7h-5.84v19.13c0,2.59-2.1,4.7-4.7,4.7h-21.48c-2.59,0-4.7-2.1-4.7-4.7s2.1-4.7,4.7-4.7h16.78v-14.44h-7.31v2c0,2.59-2.1,4.7-4.7,4.7s-4.7-2.1-4.7-4.7v-13.4c0-2.59,2.1-4.7,4.7-4.7s4.7,2.1,4.7,4.7v2h17.85V9.67l-27.37-.23-.03,6.43h2.02c2.59,0,4.7,2.1,4.7,4.7s-2.1,4.7-4.7,4.7h-30.45c-2.59,0-4.7-2.1-4.7-4.7s2.1-4.7,4.7-4.7h2.02l-.03-6.43-27.37.23v38.44h17.85v-2c0-2.59,2.1-4.7,4.7-4.7s4.7,2.1,4.7,4.7v13.4c0,2.59-2.1,4.7-4.7,4.7s-4.7-2.1-4.7-4.7v-2h-7.31v14.44h16.78c2.59,0,4.7,2.1,4.7,4.7s-2.1,4.7-4.7,4.7H15.24c-2.59,0-4.7-2.1-4.7-4.7v-19.13h-5.84c-2.59,0-4.7-2.1-4.7-4.7V5.01C0,2.43,2.08.34,4.66.31L41.35,0h.01s.03,0,.05,0h.02c2.58,0,4.68,2.09,4.7,4.67l.05,11.19h7.62l.05-11.19c.01-2.59,2.11-4.67,4.7-4.67h.02s.03,0,.05,0h.01l36.7.31c2.58.02,4.66,2.12,4.66,4.7Z"/>
      <path class="cls-1" d="M59.03,25.25c-.18.02-.36.03-.54.03h-.02c-.17,0-.34-.01-.51-.03h1.08Z"/>
    </g>
  </g>
</svg>