<?xml version="1.0" encoding="UTF-8"?>
<svg id="Layer_2" data-name="Layer 2" xmlns="http://www.w3.org/2000/svg" viewBox="0 0 139.46 93.72">
  <defs>
    <style>
      .cls-1 {
        fill: #000;
        stroke-width: 0px;
      }
    </style>
  </defs>
  <g id="Layer_6" data-name="Layer 6">
    <g>
      <g>
        <path class="cls-1" d="M16.78,41.63c0-.06-.02-.11-.03-.17,0,.04.02.08.02.12,0,.02,0,.03,0,.05Z"/>
        <g>
          <path class="cls-1" d="M16.77,41.59s-.01-.08-.02-.12c0,.06.02.11.03.17,0-.01,0-.02,0-.05Z"/>
          <path class="cls-1" d="M60.22,6.01c-.18-.21-.36-.42-.53-.61-.03-.03-.05-.06-.07-.08C56.62,2.02,52.92.14,49.19,0c-4.89-.17-10.07,2.59-13.52,7.21-1.99,2.66-3.19,5.72-3.5,8.78-1.65-.16-3.85-.16-6.16.43-1.94.5-6.49,1.67-9.91,6.51-3.85,5.45-4.09,12.9-3.86,17.01-5.02,1.93-10.62,7.5-11.94,15.94-.63,4.01-.4,9.68,1.87,14.27h0c.94,6.44,2.46,11.94,4.51,16.36.47,1.01.97,1.99,1.47,2.91,1.49,2.71,3.91,4.29,6.46,4.29.28,0,.56-.02.84-.06,6.33-.86,17.82-2.73,22.36-4,7.41-2.07,14.72-5.13,21.73-9.09,3.75-2.12,6.17-6.91,6.17-12.21V22.68c0-6.4-2-12.48-5.49-16.67ZM38.81,11.13c2.52-3.37,6.39-5.5,9.95-5.5.1,0,.21,0,.31,0,2.24.08,4.49,1.04,6.47,2.74-2.28,6.2-4.78,10.17-6.01,11.42l-.13.12c-.71.72-2.19,2.2-3.13,4.88-.57,1.63-.69,3.03-.73,4.01-1.66-.25-5.44-2.34-7.61-6.47-.75-1.43-1.37-2.75-1.46-4.46-.1-2.2.72-4.6,2.34-6.75ZM34.5,32.25c.54-1.4.86-3.05,1.06-4.71,2.86,4.11,6.95,6.58,9.76,6.88.41.05.78.04,1.11,0,.31.69.68,1.32,1.1,1.91.4.55,1.06,1.48,1.96,2.19-.78,1.86-1.77,3.98-2.58,5.49-2.27,4.21-5.08,7.2-6.81,8.8-.38-.32-.59-.52-.59-.53-.84-.86-1.43-1.68-1.85-2.28-.83-1.17-2.08-2.92-2.92-5.49-.04-.12-.1-.28-.18-.47-.22-.55-.69-1.71-.69-4.06,0-3.82.42-7.09.64-7.75ZM32.8,70.21c-2.78-1.61-4.83-4.72-7.01-10.59-.1-.25-.19-.51-.28-.77.25.02.5.03.75.03.76,0,1.51-.08,2.26-.23,2.57-.51,4.94-2.23,6.65-3.82.43.56.97,1.21,1.64,1.89.11.12,2.88,2.89,6.53,4.13.55.19,1.15.3,1.81.32-1.31,2.71-2.92,5.07-4.81,7.07-1.03,1.09-2.16,2.07-3.35,2.91-.59-.3-1.21-.52-1.86-.67-.07-.02-.13-.04-.2-.05-.7-.15-1.41-.21-2.13-.21ZM19.32,26.74c2.46-3.48,5.89-4.36,7.54-4.78,1.61-.41,3.29-.47,4.74-.36-.02.33-.03.65-.05.97-.12,2.28-.27,5.41-.95,7.16-.72,1.87-1.1,6.58-1.1,10.27s.86,5.86,1.19,6.66l.04.1c.48,1.44,1.04,2.69,1.61,3.75-1.23,1.09-2.85,2.25-4.48,2.57-1.36.27-2.72.2-4.07-.21-1.06-3.14-3.23-5.98-5.04-8.33-.7-.91-1.62-2.12-1.93-2.7,0-.09-.02-.17-.04-.26,0,.02,0,.03,0,.05,0-.06-.02-.11-.03-.17,0,0,0-.01,0-.02-.16-1.37-.97-9.7,2.57-14.71ZM6,67.42c-1.62-3.06-1.92-7.23-1.42-10.42,1.01-6.46,5.56-10.31,8.84-11.63.55.95,1.32,1.95,2.23,3.14,1.64,2.14,3.89,5.07,4.34,7.36.42,2.17,1.14,4.26,1.86,6.2,1.46,3.93,2.96,6.91,4.64,9.16-.08.02-.15.04-.23.06-4.18,1-8.92,2.14-14.47.47-2.9-.87-4.03-1.89-4.69-2.67-.42-.5-.79-1.06-1.11-1.67ZM36.89,84.16c-4.19,1.18-15.41,3.02-21.89,3.91-1.29.18-2.54-.55-3.28-1.89-.45-.81-.88-1.67-1.29-2.56-1.02-2.19-1.89-4.7-2.6-7.54.82.41,1.8.81,2.99,1.16,2.4.72,4.67.99,6.8.99,3.56,0,6.72-.75,9.46-1.41,2.79-.67,5.21-1.26,7.15-.83.75.16,1.41.46,2.01.93,1.14.88,3.66,2.02,4.96,2.43,1.53.5,3,.34,4.31.2.53-.06,1.03-.11,1.46-.11.95,0,1.6.14,2.06.38-3.99,1.75-8.04,3.21-12.12,4.34ZM53.51,77.69c-1.55-3.32-4.62-3.9-6.56-3.9-.62,0-1.23.07-1.82.13-1.06.11-2.06.22-2.89-.05-.1-.03-.21-.07-.33-.11.4-.37.79-.77,1.18-1.17,3.2-3.38,5.74-7.65,7.53-12.69.09-.04.19-.08.28-.13,0,.05,0,.1-.01.14-.2,1.98-.52,5.28.58,8.75.8,2.51,2.02,4.06,2.67,4.88.75.95,1.59,1.79,2.5,2.49-1.04.57-2.09,1.12-3.14,1.65ZM61.35,68.37c0,1.39-.29,2.72-.81,3.86-1.06-.51-2.27-1.34-3.34-2.7-.52-.66-1.23-1.56-1.69-3-.66-2.09-.45-4.2-.29-5.9.08-.8.54-2.87.71-3.66l.06-.26c.01-.05.02-.11.03-.16,1.76-1.39,3.56-3.11,5.32-5.15v16.97ZM61.35,43.44c-6.82,9.8-14.22,12.67-16.76,12,1.82-1.97,4.01-4.73,5.89-8.2,1.29-2.39,2.85-5.9,3.75-8.36,1.23-.79,2.45-2.27,4.04-4.18.79-.96,1.69-2.04,2.78-3.29.1-.11.2-.23.3-.34v12.38ZM61.35,23.67s-.05.05-.08.07c-1.04,1.11-2.09,2.27-3.12,3.45-1.13,1.31-2.06,2.41-2.87,3.39-1.32,1.59-2.83,3.39-3.19,3.32-.45-.1-1.07-.97-1.37-1.39-.46-.64-.74-1.32-.91-1.9.04-.39.05-.76.06-1.11.02-.75.03-1.46.36-2.4.49-1.4,1.32-2.23,1.82-2.73l.15-.15c1.75-1.76,4.31-5.94,6.62-11.77,1.61,2.87,2.5,6.46,2.5,10.22v.99Z"/>
        </g>
      </g>
      <g>
        <path class="cls-1" d="M122.68,41.63c0-.06.02-.11.03-.17,0,.04-.02.08-.02.12,0,.02,0,.03,0,.05Z"/>
        <g>
          <path class="cls-1" d="M122.68,41.63c0-.06.02-.11.03-.17,0,.04-.02.08-.02.12,0,.02,0,.03,0,.05Z"/>
          <path class="cls-1" d="M73.75,22.68v45.69c0,5.29,2.42,10.09,6.17,12.21,7.01,3.96,14.33,7.02,21.73,9.09,4.54,1.27,16.03,3.14,22.36,4,.28.04.56.06.84.06,2.55,0,4.97-1.58,6.46-4.29.51-.92,1-1.9,1.47-2.91,2.05-4.42,3.57-9.92,4.51-16.36h0c2.26-4.6,2.5-10.27,1.87-14.28-1.32-8.44-6.92-14.01-11.94-15.94.23-4.11,0-11.56-3.86-17.01-3.42-4.83-7.97-6-9.91-6.51-2.31-.59-4.52-.59-6.16-.43-.3-3.06-1.51-6.12-3.5-8.78C100.33,2.6,95.16-.17,90.27,0c-3.73.14-7.43,2.02-10.42,5.31-.02.03-.05.06-.07.08-.17.19-.35.4-.53.61-3.49,4.2-5.49,10.27-5.49,16.67ZM102.99,17.89c-.08,1.71-.71,3.04-1.46,4.46-2.17,4.13-5.95,6.21-7.61,6.47-.04-.98-.16-2.38-.73-4.01-.93-2.68-2.42-4.16-3.13-4.88l-.13-.12c-1.23-1.24-3.74-5.22-6.01-11.42,1.98-1.7,4.22-2.66,6.47-2.74.1,0,.2,0,.31,0,3.56,0,7.44,2.13,9.95,5.5,1.61,2.16,2.44,4.55,2.34,6.75ZM105.6,40c0,2.35-.47,3.5-.69,4.06-.08.2-.14.35-.18.47-.84,2.57-2.09,4.33-2.92,5.49-.43.6-1.01,1.42-1.85,2.28,0,0-.22.21-.59.53-1.73-1.61-4.54-4.59-6.81-8.8-.82-1.52-1.8-3.63-2.58-5.49.91-.72,1.57-1.64,1.96-2.19.41-.59.79-1.22,1.1-1.91.34.03.71.04,1.11,0,2.81-.3,6.9-2.77,9.76-6.88.2,1.66.51,3.31,1.06,4.71.22.66.64,3.93.64,7.75ZM104.53,70.42c-.07.01-.13.03-.2.05-.65.15-1.27.37-1.86.67-1.19-.84-2.31-1.81-3.35-2.91-1.89-1.99-3.5-4.36-4.81-7.07.66-.02,1.26-.12,1.81-.32,3.65-1.24,6.41-4.01,6.53-4.13.67-.68,1.2-1.32,1.64-1.89,1.71,1.59,4.08,3.31,6.65,3.82.75.15,1.5.23,2.26.23.25,0,.5,0,.75-.03-.09.25-.19.51-.28.77-2.18,5.87-4.23,8.98-7.01,10.59-.72,0-1.43.07-2.13.21ZM122.71,41.45s0,.01,0,.02c0,.06-.02.11-.03.17,0-.01,0-.02,0-.05-.02.08-.03.17-.04.26-.31.59-1.23,1.8-1.93,2.7-1.8,2.35-3.98,5.18-5.04,8.33-1.34.42-2.71.48-4.07.21-1.63-.33-3.26-1.48-4.48-2.57.57-1.06,1.14-2.31,1.61-3.75l.04-.1c.33-.8,1.19-2.93,1.19-6.66s-.38-8.4-1.1-10.27c-.68-1.75-.83-4.88-.95-7.16-.02-.32-.03-.65-.05-.97,1.45-.11,3.13-.05,4.74.36,1.65.42,5.08,1.31,7.54,4.78,3.55,5.01,2.73,13.34,2.57,14.71ZM132.35,69.08c-.66.78-1.79,1.8-4.69,2.67-5.55,1.67-10.29.53-14.47-.47-.08-.02-.15-.04-.23-.06,1.68-2.25,3.18-5.23,4.64-9.16.72-1.94,1.44-4.02,1.86-6.2.45-2.29,2.7-5.22,4.34-7.36.91-1.19,1.68-2.19,2.23-3.14,3.28,1.31,7.82,5.17,8.84,11.63.5,3.19.2,7.36-1.42,10.42-.31.6-.69,1.17-1.11,1.67ZM90.45,79.81c.46-.25,1.11-.38,2.06-.38.43,0,.93.06,1.46.11,1.3.14,2.78.3,4.31-.2,1.3-.42,3.81-1.55,4.96-2.43.6-.47,1.26-.77,2.01-.93,1.95-.42,4.36.16,7.15.83,2.74.66,5.9,1.41,9.46,1.41,2.13,0,4.39-.27,6.8-.99,1.19-.35,2.17-.75,2.99-1.16-.72,2.83-1.58,5.35-2.6,7.54-.41.89-.85,1.75-1.29,2.56-.74,1.34-1.99,2.07-3.28,1.89-6.48-.88-17.7-2.73-21.89-3.91-4.08-1.14-8.13-2.59-12.12-4.34ZM82.81,76.04c.91-.7,1.75-1.54,2.5-2.49.65-.83,1.88-2.37,2.67-4.88,1.1-3.46.78-6.77.58-8.75,0-.05,0-.09-.01-.14.1.05.19.09.28.13,1.79,5.04,4.33,9.31,7.53,12.69.38.41.78.8,1.18,1.17-.11.04-.22.08-.33.11-.83.26-1.83.16-2.89.05-.59-.06-1.2-.13-1.82-.13-1.94,0-5.01.57-6.56,3.9-1.06-.53-2.1-1.08-3.14-1.65ZM78.11,51.4c1.77,2.04,3.57,3.76,5.32,5.15,0,.05.02.11.03.16l.06.26c.17.78.63,2.86.71,3.66.17,1.7.38,3.81-.29,5.9-.46,1.44-1.17,2.34-1.69,3-1.07,1.36-2.28,2.19-3.34,2.7-.52-1.15-.81-2.47-.81-3.86v-16.97ZM78.11,31.07c.1.11.2.23.3.34,1.09,1.26,1.99,2.34,2.78,3.29,1.58,1.91,2.81,3.39,4.04,4.18.89,2.47,2.46,5.98,3.75,8.36,1.88,3.48,4.07,6.23,5.89,8.2-2.54.67-9.94-2.2-16.76-12v-12.38ZM78.11,22.68c0-3.76.89-7.35,2.5-10.22,2.31,5.83,4.87,10,6.62,11.77l.15.15c.5.5,1.33,1.33,1.82,2.73.33.94.34,1.65.36,2.4,0,.35.01.72.06,1.11-.17.57-.45,1.26-.91,1.9-.3.42-.92,1.29-1.37,1.39-.36.06-1.86-1.73-3.19-3.32-.81-.98-1.73-2.08-2.87-3.39-1.03-1.18-2.08-2.34-3.12-3.45-.03-.03-.05-.05-.08-.07v-.99Z"/>
        </g>
      </g>
    </g>
  </g>
</svg>