<svg width="317" height="108" viewBox="0 0 317 108" fill="none" xmlns="http://www.w3.org/2000/svg">
<g clip-path="url(#clip0_350_246)">
<path d="M94.87 34.01V83.42L52.09 108.12L9.3 83.42V79.48L42.79 98.82L85.57 74.11V28.64L94.87 34.01Z" fill="#FF005A"/>
<path d="M52.09 9.30005L9.3 34.01V79.48L42.79 98.82L85.57 74.11V28.64L52.09 9.30005ZM66.97 67.31L52.09 75.9L37.21 67.31V63.3801L27.9 58V40.8101L42.79 32.2201L57.67 40.8101V44.75L66.97 50.12V67.31Z" fill="black"/>
<path d="M57.67 40.81V44.75L52.09 41.52L37.21 50.12V63.38L27.9 58V40.81L42.79 32.22L57.67 40.81Z" fill="#FF005A"/>
<path d="M66.97 50.12V67.31L52.09 75.9L37.21 67.31V63.38L42.79 66.6L57.67 58V44.75L66.97 50.12Z" fill="#05F3DB"/>
<path d="M85.57 24.7V28.64L52.09 9.3L9.3 34.01V79.48L0 74.11V24.7L42.79 0L85.57 24.7Z" fill="#05F3DB"/>
<path d="M119.718 75.1978H110.87V32.9224H138.556V40.2173H119.718V51.5552H136.915V58.5571H119.718V75.1978Z" fill="black"/>
<path d="M168.556 75.1978L165.333 64.9438H150.479L147.257 75.1978H138.175L152.852 32.9224H163.253L177.96 75.1978H168.556ZM157.804 41.0083L152.384 58.3228H163.429L158.009 41.0083H157.804Z" fill="black"/>
<path d="M198.936 75.9302C186.632 75.9302 178.927 67.6978 178.927 54.0454C178.927 40.4224 186.69 32.1899 198.936 32.1899C209.102 32.1899 216.837 38.6353 217.511 48.0981H208.897C208.077 42.9126 204.093 39.5142 198.936 39.5142C192.257 39.5142 187.95 45.1099 187.95 54.0161C187.95 63.0396 192.198 68.606 198.966 68.606C204.21 68.606 207.989 65.5298 208.927 60.52H217.54C216.544 69.9536 209.307 75.9302 198.936 75.9302Z" fill="black"/>
<path d="M240.626 75.1978H231.778V40.2173H219.561V32.9224H252.872V40.2173H240.626V75.1978Z" fill="black"/>
<path d="M266.612 75.1978H257.765V32.9224H266.612V75.1978Z" fill="black"/>
<path d="M292.335 75.9302C280.03 75.9302 272.325 67.6978 272.325 54.0454C272.325 40.4224 280.089 32.1899 292.335 32.1899C302.501 32.1899 310.235 38.6353 310.909 48.0981H302.296C301.475 42.9126 297.491 39.5142 292.335 39.5142C285.655 39.5142 281.349 45.1099 281.349 54.0161C281.349 63.0396 285.597 68.606 292.364 68.606C297.608 68.606 301.388 65.5298 302.325 60.52H310.938C309.942 69.9536 302.706 75.9302 292.335 75.9302Z" fill="black"/>
</g>
<defs>
<clipPath id="clip0_350_246">
<rect width="317" height="108" fill="white"/>
</clipPath>
</defs>
</svg>
